<svg xmlns="http://www.w3.org/2000/svg" width="205.938" height="25.5" viewBox="0 0 205.938 25.5">
  <defs>
    <style>
      .pyramid,
      .paymentwall {
        fillRule: evenodd;
        }
      .pyramid {
        fill: #fec013;
      }
      .paymentwall {
        fill: #ffffff;
      }
    </style>
  </defs>
  <path d="M25.955 19.208l1.755-4.842a.548.548 0 0 1 .5-.366h7.295a.516.516 0 0 1 .5.33l1.756 4.89a.586.586 0 0 1-.5.78H26.459a.6.6 0 0 1-.504-.792zm-12.96 0l1.756-4.842a.548.548 0 0 1 .5-.366h7.295a.516.516 0 0 1 .5.33l1.755 4.89a.586.586 0 0 1-.5.78H13.5a.6.6 0 0 1-.505-.792zm6.48-6.988l1.756-4.848A.554.554 0 0 1 21.737 7h7.295a.526.526 0 0 1 .5.341l1.756 4.884a.581.581 0 0 1-.5.774H19.979a.586.586 0 0 1-.504-.779zm-12.96 0l1.756-4.848A.554.554 0 0 1 8.775 7h7.295a.526.526 0 0 1 .5.341l1.756 4.884a.581.581 0 0 1-.5.774H7.02a.586.586 0 0 1-.504-.779zM.037 19.208l1.755-4.842A.548.548 0 0 1 2.295 14H9.59a.516.516 0 0 1 .5.33l1.755 4.89a.586.586 0 0 1-.5.78H.537a.6.6 0 0 1-.5-.792zM12.995 5.232L14.751.378A.559.559 0 0 1 15.255 0h7.295a.536.536 0 0 1 .5.353l1.755 4.878a.576.576 0 0 1-.5.768H13.5a.576.576 0 0 1-.505-.767z" class="pyramid"/>
  <path d="M44.937 20V1h9.967c4.351 0 6.733 2.508 6.733 6.015 0 3.477-2.382 5.985-6.733 5.985h-4.967v7h-5zm11.62-12.985A2.025 2.025 0 0 0 54.237 5h-4.3v4h4.3c1.334 0 2.32-.681 2.32-1.985zM70.78 20v-1.619a5.887 5.887 0 0 1-4.3 1.738 4.6 4.6 0 0 1-4.791-4.608c0-3.391 2.631-4.492 4.778-4.492a5.753 5.753 0 0 1 4.313 1.623v-1.68c0-1.217-.993-2.029-2.792-2.029a6.187 6.187 0 0 0-3.951 1.478L62.456 7.6a9.169 9.169 0 0 1 6.081-2.173c3.366 0 6.251 1.246 6.251 5.593V20h-4zm0-3.822v-1.246a4.043 4.043 0 0 0-2.444-.985c-1.189 0-2.209.521-2.209 1.623s1.006 1.622 2.2 1.622a3.949 3.949 0 0 0 2.453-1.014zm6.757 5.072a2.465 2.465 0 0 0 1.1.261c1.016 0 1.654-.2 1.886-.782l.319-.641L75.275 6h4.7l3.162 8.868L86.328 6h4.729l-6.32 15.884c-1.132 2.956-3.249 3.566-5.918 3.624a9.2 9.2 0 0 1-1.915-.26zM109.822 20v-8.748c0-1.072-.334-1.883-1.669-1.883-1.218 0-2.335.782-2.335 1.362V20h-5.006v-8.748a1.939 1.939 0 0 0-2.183-1.883c-1.189 0-1.821.782-2.822 1.362V20h-4V6h4v1.484a7.8 7.8 0 0 1 4.87-2.057c2 0 3.523.84 4.1 2.492a6.028 6.028 0 0 1 4.842-2.492c2.582 0 4.2 1.333 4.2 4.2V20h-4zm5.594-7.241a7.146 7.146 0 0 1 7.359-7.332c4.149 0 7.069 3.043 7.069 7.8V14h-9.786c.261 2 1.48 2.582 3.511 2.582a5.889 5.889 0 0 0 3.481-1.144l1.885 2.8a9.15 9.15 0 0 1-5.859 1.866c-4.324.004-7.66-2.795-7.66-7.345zm7.456-4.164A2.778 2.778 0 0 0 120 11h5.773a2.682 2.682 0 0 0-2.901-2.405zM140.855 20v-8.313a2.019 2.019 0 0 0-2.285-2.318c-1.334 0-2.72.725-2.72 1.362V20h-5.005V6h5.005v1.484a7.3 7.3 0 0 1 5.107-2.057c3.192 0 4.9 1.855 4.9 4.434V20h-5.006zm7.008-4v-6h-1V6h1V3h5.005v3h3v4h-3v4.758a1.294 1.294 0 0 0 1.281 1.42 1.8 1.8 0 0 0 1.149-.348l.879 3.362a5.926 5.926 0 0 1-3.621.927c-2.843.001-4.693-1.419-4.693-4.119zm22.8 4l-2.64-8.665L165.412 20h-4.815l-4.149-14h4.589l2.262 8.578L166.05 6h3.975l2.756 8.578L175.015 6h4.613l-4.149 14h-4.815zm17.242 0v-1.619c0 1.043-2.187 1.738-3.985 1.738a4.479 4.479 0 0 1-4.634-4.608c0-3.391 2.4-4.492 4.542-4.492 1.857 0 4.077.58 4.077 1.623v-1.68c0-1.217-.678-2.029-2.477-2.029a5.785 5.785 0 0 0-3.792 1.478L180.137 7.6a9.752 9.752 0 0 1 6.3-2.173c3.366 0 6.476 1.246 6.476 5.593V20h-5zm0-3.822v-1.246c0-.637-1.142-.985-2.129-.985-1.189 0-2.051.521-2.051 1.623s.77 1.622 1.96 1.622c.987.001 2.221-.347 2.221-1.014zM201.921 20V1h4.006v19h-4.006zm-6.006 0V1h4v19h-4z" class="paymentwall"/>
</svg>