<svg xmlns="http://www.w3.org/2000/svg" xmlns:xlink="http://www.w3.org/1999/xlink" viewBox="0 0 817.882 525.84"><defs><style>.cls-1,.cls-10,.cls-11,.cls-12,.cls-13,.cls-14,.cls-15,.cls-16,.cls-17,.cls-18,.cls-19,.cls-2,.cls-20,.cls-21,.cls-22,.cls-23,.cls-24,.cls-25,.cls-26,.cls-27,.cls-3,.cls-34,.cls-4,.cls-5,.cls-60,.cls-62,.cls-63,.cls-64,.cls-69,.cls-7,.cls-96{fill:#fff;}.cls-1,.cls-10,.cls-11,.cls-12,.cls-13,.cls-14,.cls-15,.cls-16,.cls-17,.cls-18,.cls-19,.cls-2,.cls-20,.cls-21,.cls-22,.cls-23,.cls-24,.cls-25,.cls-26,.cls-28,.cls-29,.cls-3,.cls-30,.cls-32,.cls-33,.cls-36,.cls-37,.cls-38,.cls-39,.cls-4,.cls-40,.cls-41,.cls-42,.cls-43,.cls-44,.cls-45,.cls-46,.cls-47,.cls-48,.cls-49,.cls-5,.cls-50,.cls-51,.cls-52,.cls-55,.cls-56,.cls-57,.cls-58,.cls-59,.cls-6,.cls-60,.cls-61,.cls-62,.cls-63,.cls-64,.cls-65,.cls-66,.cls-67,.cls-68,.cls-69,.cls-7,.cls-71,.cls-72,.cls-73,.cls-74,.cls-75,.cls-76,.cls-77,.cls-78,.cls-79,.cls-8,.cls-80,.cls-81,.cls-82,.cls-83,.cls-84,.cls-85,.cls-86,.cls-87,.cls-88,.cls-89,.cls-9,.cls-90,.cls-91,.cls-92,.cls-93,.cls-94,.cls-95{stroke:#111;}.cls-1,.cls-10,.cls-11,.cls-12,.cls-13,.cls-14,.cls-15,.cls-16,.cls-17,.cls-18,.cls-19,.cls-2,.cls-20,.cls-21,.cls-22,.cls-23,.cls-24,.cls-25,.cls-26,.cls-28,.cls-29,.cls-3,.cls-30,.cls-32,.cls-33,.cls-36,.cls-37,.cls-38,.cls-39,.cls-4,.cls-40,.cls-41,.cls-42,.cls-43,.cls-44,.cls-45,.cls-46,.cls-47,.cls-48,.cls-49,.cls-5,.cls-50,.cls-51,.cls-52,.cls-55,.cls-56,.cls-57,.cls-58,.cls-59,.cls-6,.cls-60,.cls-61,.cls-62,.cls-63,.cls-64,.cls-65,.cls-66,.cls-67,.cls-68,.cls-69,.cls-7,.cls-71,.cls-72,.cls-73,.cls-74,.cls-75,.cls-76,.cls-77,.cls-78,.cls-79,.cls-8,.cls-80,.cls-81,.cls-82,.cls-83,.cls-84,.cls-85,.cls-86,.cls-87,.cls-88,.cls-89,.cls-9,.cls-90,.cls-91,.cls-92,.cls-93,.cls-94,.cls-95,.cls-96{stroke-linecap:round;stroke-linejoin:round;}.cls-1,.cls-32{stroke-width:0.456px;}.cls-2,.cls-56,.cls-59,.cls-66,.cls-96{stroke-width:0.744px;}.cls-3{stroke-width:0.584px;}.cls-4{stroke-width:0.619px;}.cls-5{stroke-width:0.614px;}.cls-39,.cls-6,.cls-8,.cls-9{fill:#80e3a9;}.cls-6{stroke-width:0.422px;}.cls-7{stroke-width:0.55px;}.cls-8{stroke-width:0.315px;}.cls-10,.cls-28,.cls-29,.cls-30,.cls-33,.cls-34,.cls-35,.cls-36,.cls-37,.cls-38,.cls-76,.cls-9{stroke-width:0.496px;}.cls-11{stroke-width:0.514px;}.cls-12{stroke-width:0.533px;}.cls-13{stroke-width:0.551px;}.cls-14{stroke-width:0.569px;}.cls-15{stroke-width:0.588px;}.cls-16{stroke-width:0.606px;}.cls-17{stroke-width:0.624px;}.cls-18{stroke-width:0.643px;}.cls-19{stroke-width:0.661px;}.cls-20{stroke-width:0.679px;}.cls-21{stroke-width:0.698px;}.cls-22{stroke-width:0.716px;}.cls-23{stroke-width:0.734px;}.cls-24{stroke-width:0.753px;}.cls-25{stroke-width:0.771px;}.cls-26{stroke-width:0.789px;}.cls-28,.cls-32,.cls-35,.cls-40,.cls-56,.cls-61,.cls-67,.cls-68,.cls-75,.cls-94,.cls-95{fill:none;}.cls-29{fill:#ffb3a1;}.cls-30,.cls-59,.cls-70,.cls-72{fill:#ffdf89;}.cls-31{clip-path:url(#clip-path);}.cls-33,.cls-42,.cls-44,.cls-45,.cls-47,.cls-48,.cls-50,.cls-52,.cls-53,.cls-55,.cls-58,.cls-74,.cls-78,.cls-80,.cls-81,.cls-83,.cls-84,.cls-86,.cls-88,.cls-90,.cls-91,.cls-93{fill:#ff7178;}.cls-34,.cls-35,.cls-96{stroke:#1d1d1b;}.cls-34,.cls-35{stroke-miterlimit:10;}.cls-36{fill:#1d1d1b;}.cls-37,.cls-54{fill:#111;}.cls-38,.cls-71{fill:#94b0ff;}.cls-39{stroke-width:0.491px;}.cls-40,.cls-73,.cls-74{stroke-width:0.669px;}.cls-41,.cls-43,.cls-46,.cls-49,.cls-51,.cls-57,.cls-73,.cls-76,.cls-77,.cls-79,.cls-82,.cls-85,.cls-87,.cls-89,.cls-92{fill:#ff4863;}.cls-41,.cls-42{stroke-width:0.311px;}.cls-43{stroke-width:0.458px;}.cls-44{stroke-width:0.427px;}.cls-45{stroke-width:0.405px;}.cls-46{stroke-width:0.454px;}.cls-47{stroke-width:0.423px;}.cls-48{stroke-width:0.4px;}.cls-49{stroke-width:0.451px;}.cls-50{stroke-width:0.42px;}.cls-51{stroke-width:0.463px;}.cls-52{stroke-width:0.431px;}.cls-55{stroke-width:0.402px;}.cls-57,.cls-58{stroke-width:0.5px;}.cls-60{stroke-width:0.539px;}.cls-61,.cls-71{stroke-width:0.869px;}.cls-62{stroke-width:0.845px;}.cls-63{stroke-width:0.912px;}.cls-64{stroke-width:0.763px;}.cls-65{stroke-width:0.526px;}.cls-67{stroke-width:0.38px;}.cls-68{stroke-width:0.43px;}.cls-69{stroke-width:0.56px;}.cls-72,.cls-95{stroke-width:0.836px;}.cls-75{stroke-width:0.992px;}.cls-77,.cls-78{stroke-width:0.476px;}.cls-79{stroke-width:0.657px;}.cls-80{stroke-width:0.613px;}.cls-81{stroke-width:0.58px;}.cls-82{stroke-width:0.65px;}.cls-83{stroke-width:0.606px;}.cls-84{stroke-width:0.574px;}.cls-85{stroke-width:0.646px;}.cls-86{stroke-width:0.602px;}.cls-87{stroke-width:0.663px;}.cls-88{stroke-width:0.619px;}.cls-89,.cls-90{stroke-width:0.464px;}.cls-91{stroke-width:0.576px;}.cls-92,.cls-93{stroke-width:1.051px;}.cls-94{stroke-width:0.739px;}</style><clipPath id="clip-path"><polygon class="cls-1" points="247.634 262.976 180.818 365.411 221.139 365.627 247.634 262.976"/></clipPath></defs><g id="Шар_4" data-name="Шар 4"><path class="cls-2" d="M704.573,502.826c7.077-1.6,15.243-2.135,23.408-2.668s14.7.533,23.952.533,14.7-3.2,20.686-2.134,11.432,4.269,15.787,4.269,13.609-1.6,17.42-1.6,9.8,2.668,13.609,2.668"/><path class="cls-2" d="M210.056,417.794c7.565.57,14.548,2.852,19.2,2.282s12.22-2.852,18.621-1.712a96.563,96.563,0,0,0,18.039,1.712,68.19,68.19,0,0,1,9.892.57"/><path class="cls-2" d="M126.709,311.672s5.5,1.265,8.053,1.584,16.434-.763,16.434-.763"/><path class="cls-2" d="M143.907,376.241s5.148,1.184,7.534,1.482,15.373-.714,15.373-.714"/><path class="cls-2" d="M28.65,434.361s5.148,1.184,7.534,1.482,15.373-.714,15.373-.714"/><path class="cls-3" d="M177.816,401.114s5.625-2.534,9.232-2.777,8.827,0,8.827,0,2.611-4.9,5.157-4.974a36.664,36.664,0,0,1,6.827.89,49.379,49.379,0,0,1,9.03-.894c4.218.075,3.637.358,5.382.894s8.947.106,10.4,0,7.419-3.956,9.6-4.1,7.129-.5,7.129-.5"/><path class="cls-2" d="M145.5,423.667c2.574-.285,17.559-4.33,20.977-4.447s12.121,2.224,12.121,2.224"/><path class="cls-2" d="M137.574,402.913c5.485.244,9.42.382,9.42.382"/><path class="cls-2" d="M65.618,401.027s11.347.856,14.838,0,12.366-4.278,12.366-7.558c0-2.978,8.874,4.991,11.492,6.7,1.519.992,15.635,1.884,27.224,2.458"/><path class="cls-2" d="M732.438,454.894c1.932-.133,4.4.575,21.638-1.467,17.553-2.08,25.5-7.738,26.662-7.738s16.228,5.337,20.865,5.6"/><path class="cls-2" d="M506.435,470.917s8.527,2.931,22.5,2.663c5.846-.113,16.043-3.309,28.32-12.93,3.277-2.569,7.758-10.03,7.758-10.03A82.965,82.965,0,0,0,585.186,467.5c3.984,2.421,10.862,6.195,10.862,6.195"/><polyline class="cls-2" points="577.427 475.861 599.54 470.157 616.609 470.157 630.187 471.923"/><line class="cls-4" x1="184.299" y1="199.2" x2="184.256" y2="216.948"/><rect class="cls-5" x="183.529" y="215.377" width="1.496" height="25.265" transform="translate(368.181 456.32) rotate(-179.906)"/><path class="cls-6" d="M182.146,216.117a2.131,2.131,0,1,0,2.135-2.085A2.111,2.111,0,0,0,182.146,216.117Z"/><rect class="cls-7" x="182.523" y="229.612" width="3.509" height="11.006" transform="translate(368.179 470.525) rotate(-179.909)"/><rect class="cls-8" x="182.781" y="309.706" width="2.992" height="41.988" transform="matrix(-1, -0.002, 0.002, -1, 368.032, 661.69)"/><polygon class="cls-8" points="198.131 350.967 200.949 349.982 186.565 310.433 183.747 311.418 198.131 350.967"/><polygon class="cls-8" points="170.423 350.967 167.605 349.982 181.989 310.433 184.807 311.418 170.423 350.967"/><path class="cls-9" d="M181.151,229.961a3.127,3.127,0,1,0,3.131-3.059A3.1,3.1,0,0,0,181.151,229.961Z"/><line class="cls-10" x1="186.708" y1="255.402" x2="181.916" y2="255.394"/><line class="cls-11" x1="186.703" y1="259.14" x2="181.912" y2="259.132"/><line class="cls-12" x1="186.699" y1="262.877" x2="181.908" y2="262.869"/><line class="cls-13" x1="186.695" y1="266.614" x2="181.904" y2="266.606"/><line class="cls-14" x1="186.691" y1="270.352" x2="181.9" y2="270.344"/><line class="cls-15" x1="186.687" y1="274.089" x2="181.896" y2="274.081"/><line class="cls-16" x1="186.683" y1="277.826" x2="181.891" y2="277.818"/><line class="cls-17" x1="186.679" y1="281.564" x2="181.887" y2="281.556"/><line class="cls-18" x1="186.674" y1="285.301" x2="181.883" y2="285.293"/><line class="cls-19" x1="186.67" y1="289.039" x2="181.879" y2="289.03"/><line class="cls-20" x1="186.666" y1="292.776" x2="181.875" y2="292.768"/><line class="cls-21" x1="186.662" y1="296.513" x2="181.871" y2="296.505"/><line class="cls-22" x1="186.658" y1="300.251" x2="181.866" y2="300.243"/><line class="cls-23" x1="186.654" y1="303.988" x2="181.862" y2="303.98"/><line class="cls-24" x1="186.649" y1="307.725" x2="181.858" y2="307.717"/><line class="cls-25" x1="186.645" y1="311.463" x2="181.854" y2="311.455"/><line class="cls-26" x1="186.641" y1="315.2" x2="181.85" y2="315.192"/><polygon class="cls-8" points="186.351 312.571 188.547 312.575 188.254 250.327 186.058 250.324 186.351 312.571"/><polygon class="cls-8" points="180.3 312.562 182.496 312.565 182.204 250.318 180.008 250.314 180.3 312.562"/><path class="cls-10" d="M176.784,246.3a7.494,7.494,0,1,0,7.506-7.333A7.421,7.421,0,0,0,176.784,246.3Z"/><path class="cls-9" d="M177.03,244.963l14.5.024a3.822,3.822,0,0,1,0,2.688l-14.5-.024A3.822,3.822,0,0,1,177.03,244.963Z"/><path class="cls-10" d="M173.253,306.619A11.026,11.026,0,1,0,184.3,295.831,10.916,10.916,0,0,0,173.253,306.619Z"/><path class="cls-9" d="M173.615,304.654l21.331.035a5.633,5.633,0,0,1-.007,3.955l-21.331-.035A5.631,5.631,0,0,1,173.615,304.654Z"/><path class="cls-27" d="M93.976,310.53l.163,1.046a22.687,22.687,0,0,0,2.136,2.608c.22,0,3.013.034,3.013.034l.513.39,1.816.187.492,9.592-.1,2.735.291.536.021,5.98,6.766-.015.187-9.859.179-.556-.072-2.9.644-.5-.075-4.98,1.428-.225.646-.216,2.6-.048a6.772,6.772,0,0,0,1.785-1.52,21.574,21.574,0,0,0,.84-2.081l-4.247.075-3.179-.752-2.063-.073-.442-.479-.251-3.06s-.611-1.059-1.366-.98-1.516.451-1.464,1.5a10.117,10.117,0,0,1-.332,2.5l-.728.435-.727.026a9.66,9.66,0,0,0-2.036.2l-1.17.239a9.008,9.008,0,0,1-1.889.182l-3.373-.031"/><line class="cls-10" x1="96.53" y1="314.178" x2="100.005" y2="314.21"/><path class="cls-28" d="M98.969,314.2a5.1,5.1,0,0,0,1.178.4c.428.095,1.742.161,1.742.161"/><path class="cls-28" d="M104.762,308.7a1.65,1.65,0,0,1-.261,1.063,1.347,1.347,0,0,1-.885.451l-.168-.26a2.649,2.649,0,0,0,.451-.47c.312-.461.1-1.92.3-2.758a1.492,1.492,0,0,1,1.391-1.252h.1a1.49,1.49,0,0,1,1.366,1.277c.188.842-.052,2.3.251,2.763a2.644,2.644,0,0,0,.442.479l-.173.257a1.349,1.349,0,0,1-.877-.467,1.654,1.654,0,0,1-.24-1.069"/><line class="cls-28" x1="107.872" y1="324.31" x2="107.779" y2="333.796"/><line class="cls-28" x1="106.449" y1="324.794" x2="106.357" y2="334.142"/><line class="cls-28" x1="105.099" y1="325.293" x2="105.014" y2="333.96"/><line class="cls-28" x1="103.611" y1="326.02" x2="103.535" y2="333.757"/><rect class="cls-10" x="101.257" y="333.672" width="9.324" height="1.161" transform="translate(208.763 669.462) rotate(-179.474)"/><polygon class="cls-10" points="96.91 365.7 115.564 365.781 110.92 334.713 101.362 334.626 96.91 365.7"/><path class="cls-28" d="M109.858,313.268s.33,6.009.163,6.545a.648.648,0,0,1-.644.5"/><path class="cls-28" d="M109.1,314.083s.546,9.425.168,9.681c-.513.348-3.8,1.222-5.265,2.031s-1.923,1.342-1.927,1.689a.333.333,0,0,0,.288.371v5.783"/><path class="cls-28" d="M108.7,315.818a19.634,19.634,0,0,1-1.209,4.478,8.237,8.237,0,0,1-2,2.446"/><path class="cls-28" d="M107.956,315.811a12.5,12.5,0,0,1-1.584,3.025,11.5,11.5,0,0,1-1.471,1.436"/><path class="cls-28" d="M114.89,311.86s-.591.88-3.157,1.678a5.208,5.208,0,0,1-1.84.395"/><path class="cls-28" d="M112.409,311.11a9.815,9.815,0,0,1-3.684,2.147,22.887,22.887,0,0,1-4.489.481"/><path class="cls-28" d="M109.817,310.066a3.451,3.451,0,0,1-2.8,2.18c-2.289.2-2.813-1.129-2.813-1.129"/><path class="cls-28" d="M108.4,313.331a8.26,8.26,0,0,1-2.1,2.465,17.269,17.269,0,0,1-1.549,1.123"/><path class="cls-28" d="M101.9,311.572a4.4,4.4,0,0,1-.874-.261,2.577,2.577,0,0,1-.751-.47"/><path class="cls-28" d="M101.807,313.79a8.652,8.652,0,0,1-2.135-.616,13.775,13.775,0,0,1-1.653-.985"/><path class="cls-28" d="M104.507,307.571c-.009.931.484,1.69,1.1,1.7s1.124-.745,1.133-1.676-.483-1.69-1.1-1.7S104.517,306.64,104.507,307.571Z"/><line class="cls-10" x1="114.618" y1="314.344" x2="111.143" y2="314.312"/><path class="cls-28" d="M117.243,310.743s-3.2,3.3-2.625,3.6,3.122-3.6,3.122-3.6Z"/><path class="cls-28" d="M117.243,310.743l-3.372-.03a9.043,9.043,0,0,1-1.885-.217l-1.166-.26a9.711,9.711,0,0,0-2.032-.234l-1.034-.009a2.21,2.21,0,0,1-1.937,1.057c-1.342.073-1.616-.364-1.616-.364"/><path class="cls-28" d="M109.946,314.833s.618-.049,1.048-.136a5.108,5.108,0,0,0,1.185-.375"/><path class="cls-10" d="M116.443,311.654a20.975,20.975,0,0,0,2.329.139c.95-.021,1.5-.025,1.523-.184.014-.123-.133-.127-.133-.127s.594.069.675-.053-.106-.2-.106-.2.458.047.487-.124c.035-.215-.42-.176-.42-.176s.144-.049.108-.163c-.058-.186-1.206-.1-1.206-.1s.211-.214.046-.275a7.117,7.117,0,0,0-1.889.073,1.937,1.937,0,0,0-.614.276Z"/><line class="cls-28" x1="120.162" y1="311.482" x2="119.006" y2="311.472"/><line class="cls-28" x1="120.731" y1="311.233" x2="119.214" y2="311.22"/><line class="cls-28" x1="120.798" y1="310.933" x2="119.254" y2="310.919"/><line class="cls-28" x1="119.7" y1="310.669" x2="118.615" y2="310.764"/><path class="cls-10" d="M104.193,309.928l.156,13.791a4.533,4.533,0,0,0-1.523.157,1.025,1.025,0,0,0-.717.511h0a.624.624,0,0,1-.626-.638l.476-13.841a3.4,3.4,0,0,1,1.232-.158C104.033,309.758,104.193,309.928,104.193,309.928Z"/><line class="cls-10" x1="102.888" y1="314.252" x2="102.798" y2="323.401"/><path class="cls-28" d="M93.976,310.53s3.14,3.358,2.554,3.648-3.05-3.653-3.05-3.653Z"/><path class="cls-10" d="M94.759,311.455a21.143,21.143,0,0,1-2.332.1c-.949-.039-1.505-.053-1.519-.212-.012-.123.136-.124.136-.124s-.595.058-.674-.066.11-.193.11-.193-.459.037-.485-.134c-.031-.215.423-.168.423-.168s-.143-.052-.105-.165c.062-.185,1.208-.079,1.208-.079s-.206-.218-.04-.276a7.135,7.135,0,0,1,1.887.108,1.913,1.913,0,0,1,.608.288Z"/><line class="cls-28" x1="91.044" y1="311.215" x2="92.2" y2="311.225"/><line class="cls-28" x1="90.48" y1="310.956" x2="91.996" y2="310.97"/><line class="cls-28" x1="90.418" y1="310.654" x2="91.962" y2="310.668"/><line class="cls-28" x1="91.521" y1="310.41" x2="92.605" y2="310.526"/><path class="cls-29" d="M93.976,310.53s3.235.1,4.008.014,2.328-.4,2.9-.488c.777-.126,1.08-.148,1.08-.148"/><line class="cls-28" x1="109.179" y1="323.871" x2="109.083" y2="333.623"/><line class="cls-28" x1="102.109" y1="324.387" x2="102.078" y2="327.484"/><polygon class="cls-30" points="247.634 262.976 180.818 365.411 317.893 366.143 247.634 262.976"/><polygon class="cls-27" points="247.634 262.976 180.818 365.411 221.139 365.627 247.634 262.976"/><g class="cls-31"><line class="cls-27" x1="180.818" y1="365.411" x2="221.139" y2="365.627"/><line class="cls-27" x1="183.798" y1="356.642" x2="224.119" y2="356.858"/><line class="cls-27" x1="186.778" y1="347.873" x2="227.098" y2="348.089"/><line class="cls-27" x1="189.758" y1="339.104" x2="230.078" y2="339.32"/><line class="cls-27" x1="192.737" y1="330.335" x2="233.058" y2="330.551"/><line class="cls-27" x1="195.717" y1="321.566" x2="236.038" y2="321.781"/><line class="cls-27" x1="198.697" y1="312.797" x2="239.017" y2="313.012"/><line class="cls-27" x1="201.676" y1="304.028" x2="241.997" y2="304.243"/><line class="cls-27" x1="204.656" y1="295.259" x2="244.977" y2="295.474"/><line class="cls-27" x1="207.636" y1="286.49" x2="247.956" y2="286.705"/><line class="cls-27" x1="210.616" y1="277.721" x2="250.936" y2="277.936"/><line class="cls-27" x1="213.595" y1="268.952" x2="253.916" y2="269.167"/></g><polygon class="cls-32" points="247.634 262.976 180.818 365.411 221.139 365.627 247.634 262.976"/><polygon class="cls-30" points="219.633 274.388 158.437 365.533 284.009 366.204 219.633 274.388"/><polygon class="cls-1" points="219.633 274.388 195.374 365.73 158.437 365.533 219.633 274.388"/><line class="cls-28" x1="197.447" y1="357.924" x2="199.521" y2="350.117"/><line class="cls-28" x1="195.374" y1="365.73" x2="197.447" y2="357.924"/><line class="cls-28" x1="207.814" y1="318.892" x2="205.74" y2="326.698"/><line class="cls-28" x1="201.594" y1="342.311" x2="203.667" y2="334.505"/><line class="cls-28" x1="199.521" y1="350.117" x2="201.594" y2="342.311"/><line class="cls-28" x1="203.667" y1="334.505" x2="205.74" y2="326.698"/><line class="cls-28" x1="189.817" y1="318.796" x2="195.047" y2="311.006"/><line class="cls-28" x1="168.897" y1="349.954" x2="174.127" y2="342.164"/><line class="cls-28" x1="211.96" y1="303.279" x2="209.887" y2="311.085"/><line class="cls-28" x1="216.106" y1="287.666" x2="214.033" y2="295.473"/><line class="cls-28" x1="200.277" y1="303.217" x2="205.507" y2="295.427"/><line class="cls-28" x1="179.357" y1="334.375" x2="184.587" y2="326.585"/><line class="cls-28" x1="200.277" y1="303.217" x2="195.047" y2="311.006"/><line class="cls-28" x1="210.737" y1="287.637" x2="205.507" y2="295.427"/><line class="cls-28" x1="189.817" y1="318.796" x2="184.587" y2="326.585"/><line class="cls-28" x1="207.814" y1="318.892" x2="209.887" y2="311.085"/><line class="cls-28" x1="163.667" y1="357.744" x2="158.438" y2="365.533"/><polyline class="cls-28" points="218.21 279.746 219.633 274.388 210.737 287.637"/><line class="cls-28" x1="168.897" y1="349.954" x2="163.667" y2="357.744"/><line class="cls-28" x1="179.357" y1="334.375" x2="174.127" y2="342.164"/><line class="cls-28" x1="218.21" y1="279.746" x2="216.106" y2="287.666"/><line class="cls-28" x1="211.96" y1="303.279" x2="214.033" y2="295.473"/><line class="cls-28" x1="158.438" y1="365.533" x2="195.374" y2="365.73"/><line class="cls-28" x1="163.667" y1="357.744" x2="197.447" y2="357.924"/><line class="cls-28" x1="168.897" y1="349.954" x2="199.521" y2="350.117"/><line class="cls-28" x1="174.127" y1="342.164" x2="201.594" y2="342.311"/><line class="cls-28" x1="179.357" y1="334.375" x2="203.667" y2="334.505"/><line class="cls-28" x1="184.587" y1="326.585" x2="205.74" y2="326.698"/><line class="cls-28" x1="189.817" y1="318.796" x2="207.814" y2="318.892"/><line class="cls-28" x1="195.047" y1="311.006" x2="209.887" y2="311.085"/><line class="cls-28" x1="200.277" y1="303.217" x2="211.96" y2="303.279"/><line class="cls-28" x1="205.507" y1="295.427" x2="214.033" y2="295.473"/><line class="cls-28" x1="216.106" y1="287.666" x2="210.737" y2="287.637"/><line class="cls-28" x1="218.21" y1="279.746" x2="216.106" y2="279.701"/><path class="cls-33" d="M77.876,250.144A11.473,11.473,0,0,0,75.2,243.4a11.473,11.473,0,0,0-2.673,6.743Z"/><path class="cls-33" d="M63.23,348.045c2.181-5.749,6.723-9.7,11.973-9.7,5.078,0,9.493,3.7,11.751,9.144h5.9L87.919,332.1H62.805L58.2,347.41h4.387Z"/><path class="cls-34" d="M75.105,279.892a189.468,189.468,0,0,1-1.571,22.537c-4.88,35.332-15.717,60.531-15.717,60.531s-9.141-.453-9.141-.429c0,0,12.447-23.325,19.74-60.1,4.682-23.608,4.113-51.515,4.113-51.515"/><path class="cls-35" d="M70.018,307.728C64.054,340.254,53.145,362.5,53.145,362.5"/><rect class="cls-33" x="47.342" y="362.483" width="10.528" height="3.721"/><rect class="cls-33" x="60.481" y="331.001" width="29.192" height="2.957"/><line class="cls-35" x1="52.898" y1="353.536" x2="61.299" y2="353.536"/><line class="cls-35" x1="56.757" y1="344.059" x2="64.476" y2="344.059"/><line class="cls-35" x1="57.87" y1="362.483" x2="52.953" y2="353.552"/><line class="cls-35" x1="48.786" y1="362.28" x2="61.288" y2="353.623"/><line class="cls-35" x1="64.331" y1="344.178" x2="53.063" y2="353.408"/><line class="cls-35" x1="56.764" y1="344.178" x2="61.343" y2="353.48"/><line class="cls-35" x1="56.792" y1="343.964" x2="67.183" y2="334.054"/><line class="cls-35" x1="60.301" y1="333.84" x2="64.413" y2="344.178"/><line class="cls-35" x1="64.011" y1="321.271" x2="70.226" y2="321.271"/><line class="cls-35" x1="65.6" y1="315.051" x2="71.487" y2="315.051"/><line class="cls-35" x1="64.048" y1="321.318" x2="68.764" y2="328.068"/><line class="cls-35" x1="62.129" y1="327.829" x2="70.134" y2="321.438"/><line class="cls-35" x1="65.675" y1="315.189" x2="70.171" y2="321.175"/><line class="cls-35" x1="64.121" y1="321.175" x2="71.359" y2="315.213"/><line class="cls-35" x1="67.128" y1="308.636" x2="71.418" y2="315.004"/><line class="cls-35" x1="65.702" y1="314.986" x2="72.556" y2="308.958"/><line class="cls-35" x1="74.146" y1="296.562" x2="69.513" y2="296.562"/><line class="cls-35" x1="70.194" y1="291.231" x2="74.6" y2="291.231"/><line class="cls-35" x1="70.803" y1="285.604" x2="74.983" y2="285.604"/><line class="cls-35" x1="69.549" y1="296.634" x2="73.406" y2="302.978"/><line class="cls-35" x1="68.343" y1="302.859" x2="74.174" y2="296.681"/><line class="cls-35" x1="70.317" y1="291.291" x2="74.137" y2="296.514"/><line class="cls-35" x1="74.539" y1="291.411" x2="69.513" y2="296.491"/><line class="cls-35" x1="70.317" y1="291.172" x2="74.85" y2="285.734"/><line class="cls-35" x1="71.012" y1="285.687" x2="74.594" y2="291.148"/><line class="cls-35" x1="70.975" y1="285.567" x2="75.106" y2="279.843"/><line class="cls-35" x1="71.469" y1="279.82" x2="74.905" y2="285.639"/><path class="cls-34" d="M75.3,279.892a189.465,189.465,0,0,0,1.57,22.537c4.881,35.332,15.717,60.531,15.717,60.531s9.141-.62,9.141-.429c0,0-12.447-23.325-19.74-60.1-4.682-23.608-4.113-51.515-4.113-51.515H72.529"/><path class="cls-35" d="M80.388,307.728C86.352,340.254,97.261,362.5,97.261,362.5"/><rect class="cls-33" x="92.536" y="362.483" width="10.528" height="3.721" transform="translate(195.6 728.687) rotate(180)"/><line class="cls-35" x1="97.508" y1="353.536" x2="89.108" y2="353.536"/><line class="cls-35" x1="93.649" y1="344.059" x2="85.93" y2="344.059"/><line class="cls-35" x1="92.536" y1="362.483" x2="97.453" y2="353.552"/><line class="cls-35" x1="101.62" y1="362.28" x2="89.118" y2="353.623"/><line class="cls-35" x1="86.075" y1="344.178" x2="97.343" y2="353.408"/><line class="cls-35" x1="93.642" y1="344.178" x2="89.063" y2="353.48"/><line class="cls-35" x1="93.615" y1="343.964" x2="83.224" y2="334.054"/><line class="cls-35" x1="90.105" y1="333.84" x2="85.993" y2="344.178"/><line class="cls-35" x1="86.395" y1="321.271" x2="80.18" y2="321.271"/><line class="cls-35" x1="84.806" y1="315.051" x2="78.919" y2="315.051"/><line class="cls-35" x1="86.358" y1="321.318" x2="81.643" y2="328.068"/><line class="cls-35" x1="88.278" y1="327.829" x2="80.272" y2="321.438"/><line class="cls-35" x1="84.732" y1="315.189" x2="80.235" y2="321.175"/><line class="cls-35" x1="86.285" y1="321.175" x2="79.047" y2="315.213"/><line class="cls-35" x1="83.279" y1="308.636" x2="78.988" y2="315.004"/><line class="cls-35" x1="84.704" y1="314.986" x2="77.85" y2="308.958"/><line class="cls-35" x1="76.26" y1="296.562" x2="80.893" y2="296.562"/><line class="cls-35" x1="80.212" y1="291.231" x2="75.806" y2="291.231"/><line class="cls-35" x1="79.603" y1="285.604" x2="75.424" y2="285.604"/><line class="cls-35" x1="80.857" y1="296.634" x2="77" y2="302.978"/><line class="cls-35" x1="82.063" y1="302.859" x2="76.232" y2="296.681"/><line class="cls-35" x1="80.089" y1="291.291" x2="76.269" y2="296.514"/><line class="cls-35" x1="75.867" y1="291.411" x2="80.893" y2="296.491"/><line class="cls-35" x1="80.089" y1="291.172" x2="75.556" y2="285.734"/><line class="cls-35" x1="79.394" y1="285.687" x2="75.812" y2="291.148"/><line class="cls-35" x1="79.431" y1="285.567" x2="75.3" y2="279.843"/><line class="cls-35" x1="78.938" y1="279.82" x2="75.501" y2="285.639"/><polygon class="cls-33" points="89.649 330.978 60.531 330.978 59.85 327.686 90.556 327.686 89.649 330.978"/><line class="cls-35" x1="62.129" y1="327.829" x2="62.129" y2="330.906"/><line class="cls-35" x1="64.748" y1="327.829" x2="64.748" y2="330.906"/><line class="cls-35" x1="67.367" y1="327.829" x2="67.367" y2="330.906"/><line class="cls-35" x1="69.986" y1="327.829" x2="69.986" y2="330.906"/><line class="cls-35" x1="72.605" y1="327.829" x2="72.605" y2="330.906"/><line class="cls-35" x1="75.225" y1="327.829" x2="75.225" y2="330.906"/><line class="cls-35" x1="77.844" y1="327.829" x2="77.844" y2="330.906"/><line class="cls-35" x1="80.463" y1="327.829" x2="80.463" y2="330.906"/><line class="cls-35" x1="83.082" y1="327.829" x2="83.082" y2="330.906"/><line class="cls-35" x1="85.702" y1="327.829" x2="85.702" y2="330.906"/><line class="cls-35" x1="88.321" y1="327.829" x2="88.321" y2="330.906"/><polygon class="cls-33" points="83.183 306.102 67.098 306.102 66.722 302.859 83.684 302.859 83.183 306.102"/><line class="cls-35" x1="68.325" y1="303" x2="68.325" y2="306.032"/><line class="cls-35" x1="70.052" y1="303" x2="70.052" y2="306.032"/><line class="cls-35" x1="71.779" y1="303" x2="71.779" y2="306.032"/><line class="cls-35" x1="73.507" y1="303" x2="73.507" y2="306.032"/><line class="cls-35" x1="75.234" y1="303" x2="75.234" y2="306.032"/><line class="cls-35" x1="76.961" y1="303" x2="76.961" y2="306.032"/><line class="cls-35" x1="78.688" y1="303" x2="78.688" y2="306.032"/><line class="cls-35" x1="80.416" y1="303" x2="80.416" y2="306.032"/><line class="cls-35" x1="82.143" y1="303" x2="82.143" y2="306.032"/><rect class="cls-33" x="67.545" y="306.15" width="15.317" height="3.1"/><rect class="cls-33" x="71.292" y="276.958" width="7.823" height="3.196"/><line class="cls-35" x1="75.203" y1="251.2" x2="75.203" y2="276.815"/><rect class="cls-33" x="71.822" y="249.959" width="6.763" height="1.24"/><line class="cls-35" x1="72.456" y1="257.496" x2="77.866" y2="257.496"/><line class="cls-35" x1="72.456" y1="264.308" x2="78.093" y2="264.308"/><line class="cls-35" x1="72.002" y1="271.119" x2="78.32" y2="271.119"/><line class="cls-35" x1="72.108" y1="271.21" x2="78.652" y2="276.791"/><line class="cls-35" x1="78.286" y1="271.234" x2="71.724" y2="276.934"/><line class="cls-35" x1="72.492" y1="264.341" x2="78.323" y2="271.043"/><line class="cls-35" x1="77.72" y1="264.293" x2="72.145" y2="270.971"/><line class="cls-35" x1="72.565" y1="257.544" x2="77.976" y2="264.269"/><line class="cls-35" x1="77.829" y1="257.615" x2="72.492" y2="264.174"/><line class="cls-35" x1="72.602" y1="251.271" x2="77.866" y2="257.401"/><line class="cls-35" x1="77.866" y1="251.247" x2="72.565" y2="257.401"/><line class="cls-35" x1="75.203" y1="243.401" x2="75.203" y2="233.849"/><path class="cls-35" d="M73.973,338.437l0-1.712c0-.9.546-1.621,1.219-1.621h0c.673,0,1.218.726,1.218,1.621v1.64"/><path class="cls-35" d="M76.407,338.354l.052-1.613c.057-.969.647-1.7,1.318-1.629h0c.671.069,1.169.911,1.112,1.881l-.172,1.855"/><path class="cls-35" d="M78.793,338.8l.206-1.6c.088-.978.734-1.678,1.443-1.564h0a1.731,1.731,0,0,1,1.123,1.976l-.357,2.447"/><path class="cls-35" d="M81.233,340.048l.283-2.071c.122-.973.807-1.631,1.53-1.47h0a1.794,1.794,0,0,1,1.089,2.052l-.525,3.652"/><path class="cls-35" d="M74.006,338.354l-.052-1.613c-.057-.969-.647-1.7-1.318-1.629h0c-.671.069-1.169.911-1.112,1.881l.172,1.855"/><path class="cls-35" d="M71.62,338.8l-.206-1.6c-.088-.978-.735-1.678-1.443-1.564h0a1.731,1.731,0,0,0-1.123,1.976l.357,2.447"/><path class="cls-35" d="M69.179,340.048l-.282-2.071c-.122-.973-.807-1.631-1.53-1.47h0a1.794,1.794,0,0,0-1.089,2.052l.525,3.652"/><rect class="cls-10" x="115.65" y="338.9" width="43.81" height="14.55" transform="translate(-208.853 483.144) rotate(-89.903)"/><line class="cls-10" x1="137.673" y1="273.96" x2="137.667" y2="277.305"/><rect class="cls-10" x="134.132" y="285.237" width="7.033" height="4.137" transform="translate(274.809 574.845) rotate(-179.902)"/><rect class="cls-10" x="130.942" y="295.63" width="13.376" height="4.521" transform="translate(274.756 596.014) rotate(-179.903)"/><rect class="cls-36" x="130.939" y="299.183" width="13.376" height="1.101" transform="translate(274.747 599.701) rotate(-179.903)"/><rect class="cls-10" x="129.806" y="299.884" width="15.623" height="10.51" transform="translate(274.718 610.511) rotate(-179.903)"/><rect class="cls-10" x="130.318" y="313.874" width="14.55" height="10.383" transform="translate(274.645 638.364) rotate(-179.903)"/><rect class="cls-36" x="130.309" y="323.834" width="14.55" height="0.437" transform="translate(274.619 648.337) rotate(-179.903)"/><path class="cls-10" d="M141.289,314.906h1.378a0,0,0,0,1,0,0v7.25a.632.632,0,0,1-.632.632h-.114a.632.632,0,0,1-.632-.632v-7.25a0,0,0,0,1,0,0Z" transform="translate(283.411 637.937) rotate(-179.902)"/><path class="cls-10" d="M138.359,322.782l1.379,0,.012-7.207a.681.681,0,0,0-.688-.677h0a.682.682,0,0,0-.69.674Z"/><path class="cls-10" d="M135.436,322.777l1.378,0,.013-7.207a.682.682,0,0,0-.688-.677h0a.683.683,0,0,0-.691.674Z"/><path class="cls-10" d="M132.519,314.891H133.9a0,0,0,0,1,0,0v7.25a.632.632,0,0,1-.632.632h-.114a.632.632,0,0,1-.632-.632v-7.25a0,0,0,0,1,0,0Z" transform="translate(265.871 637.892) rotate(-179.902)"/><path class="cls-30" d="M133.712,305.007a3.907,3.907,0,1,0,3.913-3.822A3.869,3.869,0,0,0,133.712,305.007Z"/><line class="cls-10" x1="145.408" y1="295.16" x2="145.405" y2="297.247"/><path class="cls-10" d="M144.76,297.457a.635.635,0,1,0,.636-.621A.629.629,0,0,0,144.76,297.457Z"/><rect class="cls-10" x="144.895" y="297.895" width="0.996" height="12.262" transform="translate(290.251 608.307) rotate(-179.899)"/><line class="cls-10" x1="144.024" y1="290.453" x2="144.022" y2="291.767"/><path class="cls-10" d="M143.616,291.9a.4.4,0,1,0,.4-.392A.4.4,0,0,0,143.616,291.9Z"/><line class="cls-10" x1="131.275" y1="290.431" x2="131.273" y2="291.745"/><path class="cls-10" d="M130.867,291.878a.4.4,0,1,0,.4-.391A.395.395,0,0,0,130.867,291.878Z"/><rect class="cls-10" x="143.695" y="292.175" width="0.627" height="7.72" transform="translate(287.48 592.331) rotate(-179.896)"/><rect class="cls-10" x="130.946" y="292.154" width="0.627" height="7.72" transform="translate(262.022 592.246) rotate(-179.904)"/><line class="cls-10" x1="129.862" y1="295.133" x2="129.859" y2="297.221"/><path class="cls-10" d="M129.223,297.431a.635.635,0,1,0,.636-.621A.63.63,0,0,0,129.223,297.431Z"/><rect class="cls-10" x="129.349" y="297.869" width="0.996" height="12.262" transform="translate(259.186 608.216) rotate(-179.904)"/><path class="cls-10" d="M140.645,298.215l1,0,0-1.46a.5.5,0,0,0-.5-.493h0a.5.5,0,0,0-.5.491Z"/><path class="cls-10" d="M138.3,298.211l1,0,0-1.46a.5.5,0,0,0-.5-.493h0a.5.5,0,0,0-.5.491Z"/><path class="cls-10" d="M135.956,298.207l1,0,0-1.46a.5.5,0,0,0-.5-.493h0a.5.5,0,0,0-.5.491Z"/><path class="cls-10" d="M133.611,298.2l1,0,0-1.46a.5.5,0,0,0-.5-.493h0a.5.5,0,0,0-.5.491Z"/><rect class="cls-10" x="129.336" y="309.894" width="16.542" height="2.652" transform="translate(274.686 622.672) rotate(-179.903)"/><line class="cls-10" x1="139.77" y1="286.025" x2="139.766" y2="288.594"/><line class="cls-10" x1="138.294" y1="286.022" x2="138.29" y2="288.591"/><line class="cls-10" x1="136.818" y1="286.02" x2="136.813" y2="288.589"/><line class="cls-10" x1="135.631" y1="286.018" x2="135.627" y2="288.587"/><polygon class="cls-37" points="133.747 285.397 141.558 285.41 137.666 277.603 133.747 285.397"/><polygon class="cls-10" points="130.674 295.777 144.595 295.8 141.198 289.38 134.093 289.368 130.674 295.777"/><path class="cls-36" d="M137.26,277.488a.407.407,0,1,0,.407-.4A.4.4,0,0,0,137.26,277.488Z"/><polygon class="cls-37" points="130.327 313.862 144.878 313.887 145.875 312.56 129.334 312.532 130.327 313.862"/><path class="cls-10" d="M137.618,305.139l0-3.1Z"/><line class="cls-10" x1="139.289" y1="306.643" x2="137.618" y2="305.139"/><polygon class="cls-10" points="100.269 336.571 100.27 335.711 101.263 335.712 101.264 334.951 100.633 334.33 100.635 333.215 117.527 333.244 127.946 333.262 144.837 333.29 144.835 334.405 144.202 335.024 144.201 335.785 145.193 335.787 145.192 336.647 100.269 336.571"/><path class="cls-30" d="M110.825,336.589v-1.028a.1.1,0,0,1,.1-.1l1.811,0a.1.1,0,0,0,.1-.1v-.759a.1.1,0,0,1,.1-.1l1.868,0a.1.1,0,0,0,.1-.1l0-2.226a.1.1,0,0,1,.1-.1h.928a.1.1,0,0,0,.091-.055l.29-.566a.1.1,0,0,1,.092-.055h.508a.1.1,0,0,0,.1-.114,2.718,2.718,0,0,1,.02-1.07,1.232,1.232,0,0,1,.321-.529.1.1,0,0,0,.033-.093l-.135-.734a.1.1,0,0,0-.1-.083h-.988a.1.1,0,0,1-.1-.1l.023-.548a.1.1,0,0,1,.049-.081l.966-.576a.1.1,0,0,1,.053-.015l1.308,0a.1.1,0,0,1,.1.1l0,.887a.1.1,0,0,0,.015.053l.974,1.561a.1.1,0,0,1,.015.052l0,1.818a.1.1,0,0,0,.1.1H120a.1.1,0,0,0,.1-.1l0-1.884a.089.089,0,0,1,.007-.036l.275-.7a.092.092,0,0,0,.007-.036v-.534a.1.1,0,0,0-.027-.069l-.343-.36a.1.1,0,0,1-.006-.13l.823-1.01a.1.1,0,0,1,.179.04l.391,1.667a.1.1,0,0,0,.1.078h0a.1.1,0,0,0,.1-.116l-.111-.663a.1.1,0,0,1,.047-.1l.555-.33a.1.1,0,0,0,.049-.085v-.719a.1.1,0,0,0-.062-.092,1.056,1.056,0,0,1-.655-1.052,1.351,1.351,0,0,1,.629-.981.1.1,0,0,0,.017-.146l-.885-1a.1.1,0,0,1,.005-.136l.761-.754a.1.1,0,0,1,.154.01l.641.821.645-.818a.1.1,0,0,1,.153-.01l.759.756a.1.1,0,0,1,0,.136l-.888.994a.1.1,0,0,0,.016.146,1.352,1.352,0,0,1,.626.984,1.056,1.056,0,0,1-.659,1.049.1.1,0,0,0-.063.092v.719a.1.1,0,0,0,.049.086l.553.331a.1.1,0,0,1,.047.1l-.113.663a.1.1,0,0,0,.1.116h0a.1.1,0,0,0,.1-.077l.4-1.666a.1.1,0,0,1,.179-.04l.819,1.013a.1.1,0,0,1-.006.131l-.344.359a.1.1,0,0,0-.028.068v.534a.092.092,0,0,0,.007.036l.273.7a.088.088,0,0,1,.006.036l0,1.884a.1.1,0,0,0,.1.1h.314a.1.1,0,0,0,.1-.1l0-1.818a.1.1,0,0,1,.015-.052l.98-1.558a.1.1,0,0,0,.015-.052l0-.888a.1.1,0,0,1,.1-.1l1.308,0a.1.1,0,0,1,.053.015l.964.579a.1.1,0,0,1,.048.082l.021.547a.1.1,0,0,1-.1.1l-.988,0a.1.1,0,0,0-.1.082l-.137.734a.1.1,0,0,0,.032.093,1.236,1.236,0,0,1,.32.53,2.716,2.716,0,0,1,.016,1.071.1.1,0,0,0,.1.114h.508a.1.1,0,0,1,.091.055l.288.567a.1.1,0,0,0,.091.055l.929,0a.1.1,0,0,1,.1.1l0,2.225a.1.1,0,0,0,.1.1l1.868,0a.1.1,0,0,1,.1.1v.759a.1.1,0,0,0,.1.1l1.81,0a.1.1,0,0,1,.1.1l0,1.028"/><rect class="cls-10" x="117.514" y="333.45" width="10.438" height="3.441" transform="translate(244.895 670.55) rotate(-179.903)"/><rect class="cls-30" x="141.939" y="341.579" width="2.503" height="23.69" transform="translate(285.776 707.093) rotate(-179.902)"/><rect class="cls-30" x="134.086" y="341.566" width="2.503" height="23.69" transform="translate(270.069 707.053) rotate(-179.902)"/><rect class="cls-30" x="126.232" y="341.553" width="2.503" height="23.69" transform="translate(254.375 707.009) rotate(-179.904)"/><rect class="cls-30" x="116.421" y="341.536" width="2.503" height="23.69" transform="translate(234.741 706.963) rotate(-179.902)"/><rect class="cls-30" x="108.568" y="341.523" width="2.503" height="23.69" transform="translate(219.034 706.923) rotate(-179.902)"/><rect class="cls-30" x="100.959" y="341.51" width="2.503" height="23.69" transform="translate(203.828 706.881) rotate(-179.904)"/><rect class="cls-30" x="140.947" y="364.381" width="4.445" height="1.819" transform="translate(285.721 730.823) rotate(-179.903)"/><rect class="cls-30" x="125.24" y="364.354" width="4.445" height="1.819" transform="translate(254.3 730.745) rotate(-179.902)"/><rect class="cls-30" x="115.429" y="364.338" width="4.445" height="1.819" transform="translate(234.686 730.693) rotate(-179.903)"/><rect class="cls-30" x="107.576" y="364.324" width="4.445" height="1.819" transform="translate(218.979 730.653) rotate(-179.903)"/><rect class="cls-30" x="99.967" y="364.311" width="4.445" height="1.819" transform="translate(203.761 730.614) rotate(-179.903)"/><rect class="cls-10" x="100.585" y="339.26" width="44.277" height="1.805" transform="translate(244.871 680.533) rotate(-179.903)"/><polygon class="cls-30" points="100.978 342.495 144.461 342.568 145.474 341.104 99.971 341.026 100.978 342.495"/><polygon class="cls-30" points="100.587 339.223 144.864 339.298 147.261 336.651 98.199 336.567 100.587 339.223"/><rect class="cls-10" x="143.973" y="333.296" width="13" height="8.431" transform="translate(300.383 675.274) rotate(-179.904)"/><rect class="cls-10" x="159.393" y="311.66" width="14.21" height="47.862" transform="translate(332.437 671.458) rotate(-179.905)"/><rect class="cls-10" x="185.084" y="329.501" width="7.255" height="16.99" transform="translate(376.865 676.304) rotate(-179.905)"/><path class="cls-10" d="M185.133,330.53l7.219.012a5.006,5.006,0,0,0,.878-3.945l-8.962-.015A5.006,5.006,0,0,0,185.133,330.53Z"/><line class="cls-28" x1="188.565" y1="307.991" x2="188.556" y2="313.182"/><path class="cls-38" d="M181.175,324.021c-.448,3.581,3.276,3.582,7.325,3.588s7.941.3,7.336-3.564c-.312-2-3.354-3.46-5.014-5.581a13.323,13.323,0,0,1-2.3-4.989,15.908,15.908,0,0,1-2.5,4.981C184.536,320.443,181.439,321.915,181.175,324.021Z"/><path class="cls-10" d="M187.45,313.444a1.109,1.109,0,1,0,1.108-1.025A1.068,1.068,0,0,0,187.45,313.444Z"/><polygon class="cls-10" points="158.712 312.083 174.365 312.109 170.543 306.832 162.552 306.819 158.712 312.083"/><rect class="cls-10" x="178.303" y="332.577" width="7.976" height="12.601" transform="translate(364.018 678.058) rotate(-179.905)"/><line class="cls-10" x1="184.252" y1="324.176" x2="184.248" y2="326.604"/><path class="cls-33" d="M180.9,331.675c-.2,1.676,1.484,1.676,3.318,1.679s3.6.139,3.324-1.668c-.142-.934-1.52-1.619-2.272-2.611a6.343,6.343,0,0,1-1.041-2.334,7.552,7.552,0,0,1-1.134,2.33C182.427,330,181.024,330.69,180.9,331.675Z"/><path class="cls-10" d="M183.747,326.727a.5.5,0,1,0,.5-.48A.491.491,0,0,0,183.747,326.727Z"/><rect class="cls-10" x="172.908" y="327.137" width="7.356" height="15.848" transform="translate(352.613 670.416) rotate(-179.905)"/><path class="cls-10" d="M178.359,330.9h3.63a0,0,0,0,1,0,0v1.738a1.566,1.566,0,0,1-1.566,1.566h-.5a1.566,1.566,0,0,1-1.566-1.566V330.9a0,0,0,0,1,0,0Z" transform="translate(359.795 665.399) rotate(-179.905)"/><path class="cls-10" d="M174.717,334.193l3.63.006,0-1.564a1.779,1.779,0,0,0-1.812-1.743h0a1.78,1.78,0,0,0-1.818,1.737Z"/><path class="cls-10" d="M171.079,334.187l3.629.006,0-1.564a1.778,1.778,0,0,0-1.812-1.743h0a1.779,1.779,0,0,0-1.818,1.737Z"/><rect class="cls-10" x="147.423" y="323.122" width="6.271" height="7.059" transform="translate(300.571 653.555) rotate(-179.904)"/><path class="cls-10" d="M150.591,331.644l3.095,0,0-1.82a1.517,1.517,0,0,0-1.545-1.486h0a1.518,1.518,0,0,0-1.55,1.481Z"/><path class="cls-10" d="M147.415,331.639l3.094,0,0-1.564a1.651,1.651,0,0,0-1.544-1.742h0a1.652,1.652,0,0,0-1.551,1.737Z"/><path class="cls-10" d="M148.79,333.293l3.514.006,0-1.564a1.749,1.749,0,0,0-1.754-1.743h0a1.749,1.749,0,0,0-1.76,1.737Z"/><path class="cls-10" d="M145.229,333.287l3.515.006,0-1.564a1.748,1.748,0,0,0-1.754-1.743h0a1.749,1.749,0,0,0-1.76,1.737Z"/><path class="cls-10" d="M152.351,333.3l3.514.006,0-1.564A1.749,1.749,0,0,0,154.114,330h0a1.748,1.748,0,0,0-1.76,1.737Z"/><path class="cls-10" d="M164.162,322.685l4.7.008,0-2.734c0-1.678-1.047-3.041-2.345-3.043h0c-1.3,0-2.352,1.357-2.355,3.036Z"/><path class="cls-10" d="M159.4,322.677l4.7.008,0-2.734c0-1.678-1.047-3.041-2.345-3.043h0c-1.3,0-2.353,1.357-2.356,3.036Z"/><path class="cls-10" d="M168.925,322.693l4.7.007,0-2.733c0-1.678-1.047-3.041-2.345-3.043h0c-1.3,0-2.353,1.357-2.356,3.035Z"/><rect class="cls-10" x="155.823" y="330.863" width="6.664" height="7.547" transform="translate(317.753 669.539) rotate(-179.905)"/><path class="cls-10" d="M159.193,336.446h3.289a0,0,0,0,1,0,0v2.114a1.419,1.419,0,0,1-1.419,1.419h-.451a1.419,1.419,0,0,1-1.419-1.419v-2.114A0,0,0,0,1,159.193,336.446Z" transform="translate(321.117 676.689) rotate(-179.906)"/><path class="cls-10" d="M155.814,339.97l3.289,0,0-1.672a1.763,1.763,0,0,0-1.641-1.863h0a1.762,1.762,0,0,0-1.648,1.857Z"/><path class="cls-10" d="M157.276,341.739l3.735.006,0-1.673a1.865,1.865,0,0,0-1.865-1.863h0a1.864,1.864,0,0,0-1.87,1.857Z"/><path class="cls-10" d="M153.492,341.732l3.734.007,0-1.673a1.863,1.863,0,0,0-1.864-1.863h0a1.864,1.864,0,0,0-1.87,1.857Z"/><path class="cls-10" d="M161.06,341.745l3.735.006,0-1.672a1.865,1.865,0,0,0-1.864-1.864h0a1.865,1.865,0,0,0-1.871,1.857Z"/><path class="cls-10" d="M172.934,327.588l7.22.012a5,5,0,0,0,.877-3.945l-8.961-.015A5,5,0,0,0,172.934,327.588Z"/><line class="cls-28" x1="176.606" y1="306.719" x2="176.596" y2="312.315"/><path class="cls-33" d="M170.614,321.386c-.363,3,2.655,3,5.935,3s6.435.25,5.946-2.983c-.254-1.671-2.718-2.9-4.063-4.671a11.326,11.326,0,0,1-1.862-4.175,13.52,13.52,0,0,1-2.03,4.169C173.338,318.392,170.828,319.624,170.614,321.386Z"/><path class="cls-10" d="M175.7,312.534a.9.9,0,1,0,.9-.857A.878.878,0,0,0,175.7,312.534Z"/><line class="cls-28" x1="159.271" y1="316.904" x2="159.263" y2="321.555"/><path class="cls-33" d="M154.292,329.094c-.3,2.491,2.206,2.491,4.932,2.5s5.349.208,4.942-2.479c-.211-1.389-2.259-2.407-3.377-3.882a9.422,9.422,0,0,1-1.548-3.47,11.213,11.213,0,0,1-1.687,3.464C156.555,326.606,154.469,327.629,154.292,329.094Z"/><ellipse class="cls-10" cx="159.263" cy="321.739" rx="0.714" ry="0.745" transform="translate(-162.651 480.647) rotate(-89.937)"/><line class="cls-28" x1="150.604" y1="307.928" x2="150.595" y2="312.87"/><path class="cls-33" d="M145.313,320.882c-.322,2.647,2.344,2.647,5.241,2.652s5.684.22,5.251-2.635c-.224-1.475-2.4-2.557-3.588-4.125a10.008,10.008,0,0,1-1.645-3.687,11.927,11.927,0,0,1-1.792,3.681C147.718,318.237,145.5,319.325,145.313,320.882Z"/><path class="cls-10" d="M149.8,313.064a.792.792,0,1,0,.793-.757A.777.777,0,0,0,149.8,313.064Z"/><polyline class="cls-10" points="170.543 306.832 168.904 310.928 166.547 306.825 164.372 310.92 162.552 306.819"/><line class="cls-28" x1="166.592" y1="284.615" x2="166.586" y2="288.246"/><path class="cls-38" d="M163.885,292.342c-.164,1.354,1.2,1.354,2.68,1.356s2.906.113,2.685-1.347c-.115-.754-1.227-1.308-1.835-2.109a5.128,5.128,0,0,1-.841-1.885,6.112,6.112,0,0,1-.916,1.882C165.115,290.99,163.982,291.546,163.885,292.342Z"/><path class="cls-10" d="M166.181,288.345a.405.405,0,1,0,.406-.387A.4.4,0,0,0,166.181,288.345Z"/><rect class="cls-10" x="164.941" y="293.651" width="3.25" height="4.799" transform="translate(332.646 592.375) rotate(-179.906)"/><polygon class="cls-10" points="170.543 306.832 168.187 298.453 164.937 298.448 162.552 306.819 170.543 306.832"/><rect class="cls-10" x="143.943" y="341.757" width="48.498" height="24.237" transform="translate(335.795 708.03) rotate(-179.905)"/><polygon class="cls-38" points="162.466 348.69 156.967 340.306 151.44 348.671 162.466 348.69"/><rect class="cls-10" x="151.427" y="348.681" width="11.04" height="13.025" transform="translate(313.301 710.648) rotate(-179.904)"/><path class="cls-10" d="M153.778,361.03l6.305.011.008-4.406c0-2.707-1.4-4.9-3.144-4.906h0c-1.741,0-3.156,2.189-3.161,4.9Z"/><path class="cls-39" d="M310.748,355.439a7.551,7.551,0,0,0,3.24-6.168,7.7,7.7,0,0,0-7.776-7.623c-.238,0-.463.049-.7.069a9.248,9.248,0,0,0,2.357-6.316c0-4.617-3-8.359-6.7-8.359s-6.7,3.742-6.7,8.359c0,.14.028.271.033.411a6.66,6.66,0,0,0-2.919,2.039,6.741,6.741,0,0,0-2.875-.659,6.634,6.634,0,0,0-6.7,6.567c0,.07.019.136.021.206a6.711,6.711,0,0,0-2.041.854,6.746,6.746,0,0,0-3.629-1.06,6.634,6.634,0,0,0-6.7,6.567,6.4,6.4,0,0,0,.825,3.1,5.345,5.345,0,0,0-6.224,4.461c-.063,0-.121-.019-.184-.019a8.727,8.727,0,0,0-8.812,8.638h63.11A11.931,11.931,0,0,0,310.748,355.439Z"/><path class="cls-39" d="M287.6,356.5a6.519,6.519,0,0,1-.776-3.09,6.706,6.706,0,0,1,6.772-6.639,6.783,6.783,0,0,1,6.182,3.923"/><path class="cls-27" d="M0,375.389V359.428s61.152-3.422,87.338-1.711,39.278,2.567,55.863,2.567,70.119,2.852,80.594,2.852S253.278,362,261.036,362c4.122,0,35.8.84,53.062.84l10.968,3.972"/><path class="cls-2" d="M608.288,374.366V358.405s77.685-3.422,103.87-1.711,39.279,2.567,55.863,2.567c12.29,0,29.549,1.566,49.861,2.377"/><path class="cls-2" d="M9.339,378.992s18.459.614,25.3,0,12.989-1.842,19.142-.614,12.306,2.456,17.092,2.456"/><path class="cls-40" d="M322.109,174.731s10.006,92.878,0,122.3-12.76,30.708-12.76,30.708"/><polygon class="cls-41" points="337.254 339.841 310.645 343.008 305.515 341.717 307.711 337.21 338.239 332.006 337.254 339.841"/><path class="cls-41" d="M374.03,202.981l-5,1.255c-.46-.536-.691-.8-1.153-1.339-2-9.943-4.448-19.912-7.281-29.651.165-.653.247-.98.409-1.632l4.727-1.195,1.237,1.217c2.875,9.729,5.365,19.69,7.407,29.627C374.24,201.95,374.17,202.294,374.03,202.981Z"/><path class="cls-41" d="M379.878,240.455l-5.118,1.269-1.483-.693q-1.881-17.7-5.333-35.182c.423-.713.634-1.07,1.054-1.784l4.829-1.213c.655.443.983.666,1.636,1.109q3.534,17.448,5.5,35.162C380.532,239.656,380.314,239.922,379.878,240.455Z"/><path class="cls-41" d="M382.172,284.288c-2.1.867-3.156,1.3-5.264,2.167l-2.286-.839c-.113-14.032-.758-27.887-1.947-41.87.836-.806,1.253-1.21,2.085-2.016l4.947-1.228,2.388.909a399.614,399.614,0,0,1,2.193,40.969C383.443,283.143,383.02,283.525,382.172,284.288Z"/><path class="cls-41" d="M363.079,405.2l-5.649,1.229-2.377-1.372A440.366,440.366,0,0,0,374.08,287.365c3.17-1.212,4.754-1.817,7.916-3.029l2.818.427a440.311,440.311,0,0,1-18.25,117.785C365.174,403.61,364.477,404.14,363.079,405.2Z"/><path class="cls-42" d="M366.6,405.758h-5.253c-.866-.813-1.3-1.22-2.17-2.033a440.286,440.286,0,0,0,18.614-117.742l2.826-1.112H385.7l2.814,1.112a440.314,440.314,0,0,1-18.615,117.741C368.579,404.539,367.92,404.946,366.6,405.758Z"/><path class="cls-40" d="M347.02,287.414a269.681,269.681,0,0,0,15.608-124.693"/><path class="cls-43" d="M371.915,217.819H336.672c-.793-4.777-1.226-7.161-2.165-11.917H369.75C370.689,210.658,371.122,213.042,371.915,217.819Z"/><path class="cls-44" d="M373.024,224.891c-2.023-2.124-3.043-3.185-5.094-5.306H343.08c-2.1,2.121-3.164,3.182-5.3,5.306-1.033-6.994-1.627-10.483-2.971-17.438h35.242C371.4,214.408,371.991,217.9,373.024,224.891Z"/><path class="cls-45" d="M342.483,210.4c.438,2.362.648,3.544,1.05,5.91"/><path class="cls-45" d="M347.214,210.4c.438,2.362.648,3.544,1.051,5.91"/><path class="cls-45" d="M351.945,210.4c.438,2.361.649,3.544,1.051,5.91"/><path class="cls-45" d="M356.677,210.4c.438,2.361.648,3.544,1.05,5.91"/><path class="cls-45" d="M361.409,210.4c.438,2.361.648,3.544,1.049,5.91"/><path class="cls-45" d="M366.14,210.4c.438,2.361.648,3.544,1.05,5.91"/><path class="cls-46" d="M375.639,255.8H341.122c-.332-4.818-.534-7.225-1.012-12.033h34.517C375.105,248.572,375.307,250.979,375.639,255.8Z"/><path class="cls-47" d="M376.038,262.39c-1.776-1.925-2.668-2.888-4.467-4.812H347.232c-2.259,2.138-3.4,3.207-5.684,5.347-.358-7.045-.615-10.565-1.285-17.593H374.78C375.43,252.146,375.681,255.559,376.038,262.39Z"/><path class="cls-48" d="M348.121,248.135c.21,2.385.306,3.578.481,5.965"/><path class="cls-48" d="M352.755,248.135c.21,2.385.307,3.578.481,5.965"/><path class="cls-48" d="M357.389,248.135c.21,2.385.306,3.578.481,5.965"/><path class="cls-48" d="M362.022,248.135c.211,2.385.307,3.578.481,5.965"/><path class="cls-48" d="M366.656,248.135c.211,2.385.307,3.578.481,5.965"/><path class="cls-48" d="M371.291,248.135c.209,2.385.306,3.578.48,5.965"/><path class="cls-49" d="M375.775,299.672H341.724c.2-4.823.262-7.236.316-12.061h34.05C376.037,292.436,375.974,294.849,375.775,299.672Z"/><path class="cls-50" d="M375.363,307.693c-1.542-1.782-2.319-2.673-3.881-4.455H347.473c-2.473,2.139-3.716,3.208-6.216,5.346.493-7.753.646-11.635.762-19.4h34.05C375.958,296.592,375.817,300.3,375.363,307.693Z"/><path class="cls-48" d="M349.534,293.423c-.061,2.391-.1,3.587-.2,5.977"/><path class="cls-48" d="M354.168,293.423c-.062,2.391-.1,3.587-.2,5.977"/><path class="cls-48" d="M358.8,293.423c-.061,2.391-.1,3.587-.2,5.977"/><path class="cls-48" d="M363.435,293.423c-.061,2.391-.1,3.587-.2,5.977"/><path class="cls-48" d="M368.069,293.423c-.061,2.391-.1,3.587-.2,5.977"/><path class="cls-48" d="M372.7,293.423c-.061,2.391-.1,3.587-.2,5.977"/><path class="cls-51" d="M365.667,184.823H329.75c-1.2-4.713-1.834-7.063-3.178-11.747q17.958,0,35.916,0C363.833,177.76,364.468,180.11,365.667,184.823Z"/><path class="cls-52" d="M366.96,190.057c-2.964-2.1-4.452-3.143-7.445-5.234H335.986c-1.963,2.091-2.951,3.138-4.942,5.234-1.489-6.2-2.3-9.3-4.037-15.453q17.958,0,35.917,0C364.664,180.76,365.471,183.852,366.96,190.057Z"/><path class="cls-41" d="M332.012,202.981l-5,1.255c-.46-.536-.691-.8-1.154-1.339-2-9.943-4.448-19.911-7.281-29.65.166-.653.248-.98.41-1.633l4.727-1.195,1.237,1.217c2.875,9.729,5.365,19.69,7.407,29.627C332.223,201.95,332.152,202.294,332.012,202.981Z"/><path class="cls-41" d="M337.86,240.455l-5.118,1.269-1.483-.693q-1.88-17.7-5.332-35.182c.422-.713.633-1.07,1.053-1.783l4.829-1.214c.655.443.982.666,1.636,1.109q3.534,17.448,5.5,35.162C338.514,239.656,338.3,239.922,337.86,240.455Z"/><path class="cls-41" d="M340.155,284.288c-2.1.867-3.157,1.3-5.265,2.167l-2.285-.839c-.114-14.032-.758-27.887-1.948-41.869.837-.807,1.253-1.211,2.086-2.017l4.946-1.228,2.388.909a399.331,399.331,0,0,1,2.193,40.969C341.425,283.143,341,283.525,340.155,284.288Z"/><path class="cls-41" d="M324.729,393.119c-2.243.5-3.365.743-5.61,1.238l-2.422-1.383a445.928,445.928,0,0,0,15.365-105.609c3.17-1.212,4.754-1.817,7.916-3.029l2.819.427a446,446,0,0,1-14.67,105.685C326.772,391.517,326.092,392.052,324.729,393.119Z"/><path class="cls-42" d="M324.528,170.187l-6.383,1.556c.857-3.86,1.26-5.786,2.018-9.625C321.944,165.337,322.817,166.951,324.528,170.187Z"/><path class="cls-53" d="M335.829,203.551h-5.253c-.478-.621-.719-.93-1.2-1.55-2.023-9.94-4.5-19.9-7.35-29.637.188-.57.281-.855.467-1.425h5.076c.519.569.779.855,1.3,1.424,2.856,9.734,5.327,19.7,7.35,29.638C336.062,202.621,335.985,202.93,335.829,203.551Z"/><path class="cls-54" d="M335.994,203.748l-5.37.037a.291.291,0,0,1-.224-.117c-.478-.619-.718-.929-1.2-1.549a.289.289,0,0,1-.054-.11l0-.008c-.583-2.487-1.159-4.969-1.751-7.448-.567-2.479-1.192-4.953-1.779-7.423-1.18-4.941-2.52-9.864-3.82-14.766l0-.006a.21.21,0,0,1,0-.117c.187-.569.28-.854.466-1.424a.163.163,0,0,1,.164-.109H327.5a.325.325,0,0,1,.229.109l1.3,1.424a.324.324,0,0,1,.07.122c2.856,9.734,5.327,19.7,7.35,29.638a.206.206,0,0,1,0,.1C336.309,202.655,336.154,203.21,335.994,203.748Zm-.329-.395c.1-.5.2-.972.32-1.45v.1c-2.024-9.94-4.5-19.9-7.351-29.638l.07.122c-.517-.57-.776-.855-1.3-1.424l.228.109h-5.076l.164-.109c-.186.569-.28.854-.468,1.424v-.121c1.534,4.9,2.836,9.825,4.105,14.766.639,2.47,1.191,4.944,1.753,7.423.537,2.479,1.041,4.961,1.492,7.448l-.055-.117c.481.619.721.93,1.2,1.549l-.224-.117Z"/><path class="cls-53" d="M341.623,241.032H336.37L334.849,240q-1.926-17.7-5.425-35.171c.448-.578.672-.868,1.117-1.446h5.077c.682.578,1.023.868,1.7,1.446q3.493,17.454,5.425,35.171Z"/><path class="cls-54" d="M341.724,241.255l-5.329.014a.247.247,0,0,1-.139-.045l-1.52-1.033a.274.274,0,0,1-.116-.181l0-.013c-.458-2.944-.863-5.886-1.307-8.825-.395-2.939-.874-5.874-1.292-8.806s-.926-5.859-1.381-8.783c-.484-2.923-.951-5.842-1.445-8.757v-.007a.2.2,0,0,1,.035-.158c.448-.578.671-.868,1.117-1.446a.185.185,0,0,1,.149-.07h5.077a.283.283,0,0,1,.179.07c.682.578,1.022.868,1.7,1.446a.3.3,0,0,1,.1.165q3.495,17.454,5.425,35.171a.215.215,0,0,1-.065.184C342.437,240.611,342.2,240.825,341.724,241.255Zm-.2-.447,1.058-1c-.026.074-.04.111-.065.184q-1.927-17.7-5.426-35.171l.1.166c-.679-.579-1.02-.869-1.7-1.447l.178.07h-5.077l.15-.07-1.118,1.447c.013-.066.02-.1.034-.166.673,2.915,1.307,5.834,1.859,8.757.58,2.924,1.053,5.852,1.528,8.783s.846,5.867,1.224,8.806c.329,2.939.631,5.881.814,8.825-.047-.077-.071-.115-.118-.193l1.521,1.034-.138-.044Z"/><path class="cls-53" d="M343.854,284.867H338.6l-2.288-1.4a399.34,399.34,0,0,0-2.081-40.973l2.139-1.463h5.076c.979.585,1.467.877,2.444,1.463a399.618,399.618,0,0,1,2.081,40.972Z"/><path class="cls-54" d="M343.917,285.1l-5.317.01a.238.238,0,0,1-.118-.033c-.913-.559-1.371-.837-2.286-1.395a.237.237,0,0,1-.113-.2v-.009q-.143-5.128-.32-10.256c-.119-4.1-.206-6.152-.431-10.25-.185-4.1-.3-6.147-.593-10.241-.232-3.412-.469-6.82-.738-10.226v-.006a.214.214,0,0,1,.089-.2l2.137-1.462a.2.2,0,0,1,.118-.036h5.077a.239.239,0,0,1,.125.036c.979.584,1.468.877,2.445,1.462a.277.277,0,0,1,.13.2,399.335,399.335,0,0,1,2.081,40.972.247.247,0,0,1-.107.2C345.225,284.242,344.79,284.527,343.917,285.1Zm-.127-.458,2.058-1.367-.107.2A399.335,399.335,0,0,0,343.66,242.5l.13.2-2.443-1.462.125.036H336.4l.119-.036c-.855.585-1.283.878-2.139,1.462l.088-.2c.431,3.406.8,6.814,1.094,10.226.336,4.094.479,6.142.71,10.241.191,4.1.26,6.149.346,10.25q.073,5.127-.069,10.256l-.113-.206,2.288,1.4-.117-.033Z"/><path class="cls-53" d="M328.268,393.681h-5.253c-.892-.818-1.339-1.228-2.235-2.047a446,446,0,0,0,15-105.65l2.826-1.112h5.076l2.814,1.112a446,446,0,0,1-15,105.65C330.207,392.453,329.562,392.863,328.268,393.681Z"/><path class="cls-54" d="M328.28,393.9l-5.331.012a.176.176,0,0,1-.123-.044c-.892-.818-1.339-1.228-2.235-2.047a.177.177,0,0,1-.044-.18v-.007q1.645-6.479,3.169-13,1.5-6.522,2.871-13.081c1.78-8.747,3.381-17.539,4.641-26.363s2.252-17.68,2.975-26.553c.693-8.873,1.184-17.761,1.34-26.652a.241.241,0,0,1,.15-.222l2.826-1.112a.214.214,0,0,1,.082-.016h5.076a.212.212,0,0,1,.083.016l2.814,1.111a.24.24,0,0,1,.147.223,446,446,0,0,1-15,105.65.333.333,0,0,1-.142.183C330.265,392.651,329.6,393.067,328.28,393.9Zm-.023-.438c1.262-.8,1.891-1.206,3.149-2.012l-.141.184a446,446,0,0,0,15-105.65l.147.222-2.813-1.111.082.016H338.6l.082-.016-2.827,1.112c.061-.089.09-.134.15-.223.033,8.891-.194,17.779-.812,26.652q-.884,13.31-2.741,26.553c-1.239,8.824-2.73,17.616-4.638,26.363q-1.392,6.558-3.105,13.081-1.677,6.522-3.7,13l-.042-.188c.9.819,1.344,1.229,2.237,2.048l-.123-.044Z"/><path class="cls-42" d="M328.433,170.879h-6.839c-.532-3.513-.818-5.266-1.431-8.761C323.512,165.613,325.166,167.366,328.433,170.879Z"/><path class="cls-42" d="M321,161.1a.794.794,0,0,1-.785,1.113,1.684,1.684,0,0,1-1.5-1.113.791.791,0,0,1,.781-1.112A1.688,1.688,0,0,1,321,161.1Z"/><path class="cls-42" d="M366.546,170.187l-6.382,1.556c.856-3.861,1.26-5.786,2.017-9.625C363.962,165.337,364.835,166.951,366.546,170.187Z"/><path class="cls-42" d="M377.847,203.551h-5.253c-.478-.621-.718-.93-1.2-1.55-2.024-9.94-4.5-19.9-7.351-29.638.188-.569.281-.855.467-1.424h5.077c.519.57.778.855,1.295,1.425,2.856,9.733,5.327,19.7,7.35,29.637C378.08,202.621,378,202.93,377.847,203.551Z"/><path class="cls-42" d="M383.641,241.032h-5.253L376.867,240q-1.926-17.7-5.425-35.171c.448-.578.672-.868,1.118-1.446h5.076c.682.578,1.023.868,1.7,1.446q3.493,17.454,5.424,35.171Z"/><path class="cls-42" d="M385.871,284.867h-5.253l-2.287-1.4A399.335,399.335,0,0,0,376.25,242.5l2.138-1.463h5.077c.979.585,1.467.877,2.444,1.463a399.34,399.34,0,0,1,2.081,40.973Z"/><path class="cls-42" d="M370.451,170.879h-6.839c-.531-3.513-.818-5.266-1.431-8.761C365.53,165.613,367.184,167.366,370.451,170.879Z"/><path class="cls-42" d="M363.252,161.1a.793.793,0,0,1-.785,1.112,1.683,1.683,0,0,1-1.5-1.112.79.79,0,0,1,.781-1.111A1.686,1.686,0,0,1,363.252,161.1Z"/><path class="cls-55" d="M335.054,176.643c.644,2.326.957,3.492,1.566,5.825"/><path class="cls-55" d="M339.713,176.643c.644,2.326.957,3.491,1.566,5.825"/><path class="cls-55" d="M344.372,176.643c.644,2.326.958,3.491,1.566,5.825"/><path class="cls-55" d="M349.031,176.643c.644,2.326.957,3.491,1.566,5.825"/><path class="cls-55" d="M353.69,176.643c.644,2.326.957,3.491,1.566,5.825"/><path class="cls-55" d="M358.349,176.643c.644,2.326.957,3.491,1.566,5.825"/><path class="cls-2" d="M339.964,356.11q12.231,11.965,24.246,24.12h-29.5q17.493-11.9,34.758-24.12"/><path class="cls-56" d="M334.69,380.3q11.474,11.829,22.731,23.838h-29.5q18.249-11.756,36.272-23.838"/><polygon class="cls-57" points="401.009 332.723 342.128 339.31 343.066 331.493 399.79 321.824 395.524 323.797 402.04 325.84 402.526 329.806 401.009 332.723"/><polygon class="cls-58" points="400.152 329.59 342.448 336.807 343.428 329.45 403.79 318.679 403.138 322.517 396.721 324.116 400.052 327.103 400.152 329.59"/><path class="cls-40" d="M326.894,172.323s13.507,14.256,14.371,22.359.518,20.327,4,29.96,7.735,13.176,11.65,17.867,2.992,13.2,6.961,22.968,19.36,37.1,36.98,47.218"/><path class="cls-40" d="M363.457,172.323s-1.758,19.161,2.157,26.837,12.182,11.515,13.052,17.486,9.571,9.6,11.746,14.5,2.828,17.485,5.438,21.536,8.484,15.14,13.487,18.339,11.747,4.691,12.617,7.25"/><path class="cls-59" d="M379.782,225.962h0a12.811,12.811,0,0,0-2.436,3.162c-2.147,4-.482,5.534,2.484,7.226h0l27.231-21.562-8.391,1.542A36.943,36.943,0,0,0,379.782,225.962Z"/><path class="cls-60" d="M375.491,243.109a18.576,18.576,0,0,1-.137-9.175,1.8,1.8,0,0,1,2.127-1.366,8.634,8.634,0,0,1,3.021,1.344,1.355,1.355,0,0,1,.108,2.154A22.953,22.953,0,0,0,375.491,243.109Z"/><path class="cls-61" d="M241.184,457.585s-15.758,9.218-25.161,6.477-8.387-12.457-8.387-12.457-9.658,7.474-16.266,8.969a74.412,74.412,0,0,1-10.593,1.744"/><path class="cls-2" d="M0,475.388s10.547-.55,14.487-2.545A20.089,20.089,0,0,0,21.1,466.86a232.339,232.339,0,0,0,23.254,6.534A36.482,36.482,0,0,0,68.112,470.4a216.505,216.505,0,0,0,21.6,1.754c14.36.619,15.758.481,15.758.481" style="display:none"/><path class="cls-56" d="M435.9,497.1c17.976-.273,31.591-.531,31.591-.531"/><path class="cls-2" d="M266.7,500.7c4.932-.57,8.469-1.255,9.364-2.076,3.939-3.613,6.608-10.838,6.608-10.838a163.5,163.5,0,0,0,23.255,11.835c13.088,5.356,23.763-5.418,23.763-5.418s7.243,2.054,21.6,3.175c5.927.463,26.758.406,49.18.179"/><path class="cls-2" d="M729.023,414.119c4.933-.57,11.633-3.129,12.527-3.95,3.94-3.612,6.608-10.837,6.608-10.837a163.439,163.439,0,0,0,23.255,11.834c13.089,5.356,23.763-5.417,23.763-5.417s7.243,2.054,21.6,3.175"/><path class="cls-2" d="M216.977,503.235s16.421-.3,31.981-1.153"/><path class="cls-38" d="M257.865,401.614c.469.061,10.609-3.293,14.6-7.823s3.991-6.212,3.991-6.212l9.638-1.165,11.682,4.271,6.811,3.814-4.182,7.446-30.179,3.171-13.63-.99Z"/><path class="cls-56" d="M282.884,389.053a16.563,16.563,0,0,1-5.453,6.712c-4.553,3.428-12.781,6.509-12.781,6.509"/><path class="cls-56" d="M290.956,390.139a36.454,36.454,0,0,1-5.867,5.626c-8.123,5.569-14.181,6.687-14.181,6.687"/><path class="cls-56" d="M296.551,391.742a27.607,27.607,0,0,1-5.595,5.392,30.342,30.342,0,0,1-10.024,4.569"/><path class="cls-59" d="M442.6,182.227s-17.422,29.844-27.04,30.571-11.721-5.08-12.6-6.314-5.862-6.565-9.943-7.051-23.462,2.44-25.956,4.021-6.914,7.537-6.914,7.537l4.081,3.845s-1.134,1.625-2.494,3.814a10.953,10.953,0,0,0-1.587,3.647l5.462,3.664,4.513-2.205a35.467,35.467,0,0,0-1.587,4.619c-.454,1.945-.794,4.984-.794,4.984l6.159.851s1.081-1.825,2.205-3.323a11.759,11.759,0,0,1,3.084-3s3.854-.122,7.821-.608a38.278,38.278,0,0,0,8.388-2.31s12.921,16.774,22.669,17.018,23.012-6.249,23.012-6.249Z"/><path class="cls-2" d="M265.113,388.919c1.214,1.833,4.673,1.951,7.691,1.917s7.4-1.319,13.532-.957,18.252,4.62,18.252,4.62a34.291,34.291,0,0,0-16.111-8.319c-9.93-2.053-16.647-2.008-20.249-1.278S264.237,387.6,265.113,388.919Z"/><path class="cls-59" d="M394.435,215.246a104.258,104.258,0,0,1-11.782,1.459c-6.076.364-10.417,1.057-10.417,1.057l-3.534-4.644a14.3,14.3,0,0,1,5.518-5.531A22.1,22.1,0,0,1,380.3,205.4"/><path class="cls-59" d="M454.355,297.129s-21.407,7.512-31.839,21.947-10.607,69.977-10.607,69.977l68.927,8.624,51.82-5.714-.527-27.236L469.442,314.4Z"/><path class="cls-2" d="M500.542,81.985c3.209,8.352,3.511,16.73,1.379,21.006A51.755,51.755,0,0,1,483.9,94.508C491.568,92.288,497.292,86.06,500.542,81.985Z"/><path class="cls-2" d="M515.43,94.732c1.705,7.905.8,15.4-1.71,18.887a47.662,47.662,0,0,1-14.969-10.229C505.939,102.558,511.944,97.872,515.43,94.732Z"/><path class="cls-2" d="M525.576,105.985c1.887,7.866,1.158,15.38-1.272,18.921a47.722,47.722,0,0,1-15.2-9.893C516.268,114.021,522.163,109.2,525.576,105.985Z"/><path class="cls-2" d="M535.132,116.37c1.887,7.866,1.158,15.38-1.272,18.921a47.722,47.722,0,0,1-15.2-9.893C525.824,124.406,531.72,119.588,535.132,116.37Z"/><path class="cls-62" d="M548.527,132.888c.691,9.44-1.461,17.3-4.792,20.048A78.023,78.023,0,0,1,528.626,135.2C536.759,137.392,544.165,134.835,548.527,132.888Z"/><path class="cls-62" d="M560.53,149.156c.69,9.439-1.462,17.3-4.792,20.047a78.02,78.02,0,0,1-15.11-17.74C548.761,153.659,556.167,151.1,560.53,149.156Z"/><path class="cls-62" d="M571.15,165.964c.691,9.44-1.462,17.3-4.792,20.048a78.05,78.05,0,0,1-15.11-17.741C559.382,170.468,566.787,167.911,571.15,165.964Z"/><path class="cls-62" d="M604.874,238.071c.691,9.44-1.462,17.3-4.792,20.048a78.016,78.016,0,0,1-15.109-17.74C593.106,242.575,600.512,240.018,604.874,238.071Z"/><path class="cls-63" d="M620.454,252.869c-.008,9.991-3.013,18.522-6.9,21.708a67.269,67.269,0,0,1-15.164-17.7C607.154,258.581,615.5,255.282,620.454,252.869Z"/><path class="cls-63" d="M672.337,295.127c-.009,9.991-3.014,18.522-6.9,21.708a67.27,67.27,0,0,1-15.165-17.7C659.036,300.839,667.383,297.54,672.337,295.127Z"/><path class="cls-63" d="M695.72,321.166c-.009,9.991-3.013,18.522-6.9,21.708a67.234,67.234,0,0,1-15.164-17.7C682.419,326.878,690.767,323.579,695.72,321.166Z"/><path class="cls-63" d="M709.111,339.038c-.009,9.991-3.014,18.521-6.9,21.707a67.254,67.254,0,0,1-15.165-17.7C695.81,344.75,704.158,341.45,709.111,339.038Z"/><path class="cls-64" d="M717.653,356.987c-.008,8.366-2.523,15.508-5.775,18.176a56.306,56.306,0,0,1-12.7-14.818C706.516,361.77,713.505,359.008,717.653,356.987Z"/><path class="cls-64" d="M730.788,374.435c-2.061,8.117-6.257,14.456-10.068,16.278a55.552,55.552,0,0,1-8.684-17.378C718.805,376.449,726.267,375.417,730.788,374.435Z"/><path class="cls-64" d="M737.411,396.478c-4.45,7.138-10.392,11.952-14.584,12.569a54.986,54.986,0,0,1-2.969-19.131C725.364,394.877,732.8,396.086,737.411,396.478Z"/><path class="cls-59" d="M445.339,174.168s-10.042,23.7-10.181,63.793,11.091,82.252,42.671,112.785c27.9,26.979,61.541,22.857,72.626,14.614,12.128-9.019,23.062-49.649,9.174-110.912-5.352-23.606-22.17-59.176-40.9-84.294s-40.9-33.362-44.722-32.613S445.339,174.168,445.339,174.168Z"/><path class="cls-59" d="M720.269,445.915c9.222-21.433,5.072-56.848-10.688-77.436-34.675-45.3-99.983-104.6-108.67-110.7-11.574-8.134-14.3-25.068-29.3-58.379-1.219-13.407-37.427-63.322-37.427-63.322-4.431-5.423-8.818-10.25-13.253-14.926a239.428,239.428,0,0,0-32.4-28.009l-3.371-7.307-21.512-8.993H445.08l-9.907,8.993,34.269,65.194,64.43,220.082S664.6,391.09,679.718,407.816c38.4,42.484-35.33,85.38-35.33,85.38C657.947,495.535,705.119,481.124,720.269,445.915Z"/><path class="cls-2" d="M452.261,175.527s-9.543,23.307-9.676,62.736,9.976,81.441,40.557,110.915c8.733,8.417,24.847,11.755,37.7,8.06,11-3.163,36.109-14.5,21.239-94.772-4.327-23.362-13.108-50.294-34.364-88.9-14.654-26.616-30.076-36.759-33.709-36.022S452.261,175.527,452.261,175.527Z"/><path class="cls-59" d="M430.049,136.6s9.747,7.307,11.276,14.614-1.529,21.92-1.529,21.92l21.6-3.935,3.631-31.662-8.983-20.609L442.09,114.5Z"/><path class="cls-2" d="M458.908,130.843a13.75,13.75,0,0,0-7.931,5.621c-3.426,4.858-5.017,14.121-9.411,16.265-3.65,1.781-21.838,1.97-28.726,5.132-6.264,2.875-6.586,6.463-5.869,7.447s1.935-2.6,9.747-3.091c8.3-.523,24.409,1.358,32.382-1.238,6.894-2.244,14.514-11.148,14.514-11.148Z"/><polygon class="cls-2" points="450.342 122.406 449.543 130 446.103 127.471 446.103 134.541 442.376 132.298 442.376 138.431 437.991 135.246 437.991 143.208 434.444 139.462 433.465 146.321 429.918 140.627 430.049 148.161 425.699 143.817 425.699 150.782 421.778 146.936 421.018 151.78 417.27 146.936 448.54 119.383 450.342 122.406"/><polygon class="cls-2" points="397.594 155.363 393.724 146.321 398.801 146.936 397.594 155.363"/><polygon class="cls-2" points="416.064 155.363 412.677 146.936 417.27 146.936 416.064 155.363"/><polygon class="cls-2" points="402.431 153.536 399.044 147.322 403.638 147.322 402.431 153.536"/><polygon class="cls-2" points="406.911 154.203 403.523 147.361 408.117 147.361 406.911 154.203"/><polygon class="cls-2" points="411.634 154.203 408.246 147.361 412.84 147.361 411.634 154.203"/><polygon class="cls-2" points="425.923 176.001 428.398 168.454 431.1 172.763 435.158 166.895 439.032 171.15 442.663 165.478 445.147 168.829 448.874 163.957 451.741 166.895 454.13 161.99 460.055 165.478 445.339 174.168 425.113 178.317 425.923 176.001"/><polygon class="cls-2" points="419.128 167.729 422.516 174.57 417.922 174.57 419.128 167.729"/><polygon class="cls-2" points="403.82 166.895 409.013 175.276 403.9 175.404 403.82 166.895"/><polygon class="cls-2" points="425.113 166.895 419.92 175.276 426.969 176.286 425.113 166.895"/><polygon class="cls-2" points="409.894 167.729 413.282 174.57 408.688 174.57 409.894 167.729"/><polygon class="cls-2" points="414.768 167.729 418.155 174.57 413.561 174.57 414.768 167.729"/><line class="cls-2" x1="458.908" y1="166.018" x2="457.761" y2="169.203"/><path class="cls-59" d="M468.464,94.825c-6.116-6.37-25.8-13.864-25.8-13.864s-12.232,0-17.583,3.372-14.033,14.787-16.437,18.361c-5.506,8.187-1.146,13.676-1.146,13.676s-14.334,16.675-15.863,19.3c-.938,1.608-.726,4.894-.421,7.195a4.8,4.8,0,0,0,4.134,4,59.7,59.7,0,0,0,9.474.658,62.994,62.994,0,0,0,12.829-.757c6.952-1.311,10.2-3.692,18.316-11.962l12.622-13.182s10.129,2.623,11.467,21.358a100.052,100.052,0,0,1-.195,13.494,14.612,14.612,0,0,1-9.977,12.782c-2.7.91-5.666,1.848-8.367,2.576-3.849,1.038-10.218,2.74-15.593,4.175a7.361,7.361,0,0,0-5.846-2.863H409.414a7.256,7.256,0,0,0-7.329,7.3,3.186,3.186,0,0,0,3.236,3.058H424.17a156.936,156.936,0,0,0,24.418-5.862c13-4.122,21.787-10.739,25.037-15.644,2.184-3.3,5.351-10.21,5.733-31.147C479.861,103.3,474.58,101.2,468.464,94.825Z"/><path class="cls-56" d="M392.412,134.541h5.721a5.756,5.756,0,0,1,5.77,5.126V147.5"/><path class="cls-56" d="M403.9,144.754v-4.309a7.1,7.1,0,0,1,6.772-6.987l3.406-.211a7.144,7.144,0,0,1,7.7,6.869v5.577"/><path class="cls-56" d="M407.5,116.37s4.2-5.339,13.091-5.48A36.1,36.1,0,0,1,436.5,114.5s.552-11.251,7.884-16.955c9.03-7.026,15.051,0,15.051,0"/><path class="cls-65" d="M451.92,103.559c1.01,1.593.174,3.894-1.869,5.139s-4.561,1.12-5.322-.61a5.345,5.345,0,0,1,1.663-5.161A3.866,3.866,0,0,1,451.92,103.559Z"/><path class="cls-66" d="M406.75,110.244c-.236,2.113.391,3.983,1.743,4.225s2.81-1.12,3.036-3.226a5.067,5.067,0,0,0-2.406-3.811C407.843,106.882,407.039,107.655,406.75,110.244Z"/><path class="cls-56" d="M444.956,109.064s-.927-7.234,5.3-8.712a13.687,13.687,0,0,1,7.31,0"/><path class="cls-66" d="M419.92,135.548c0,.775-1,1.431-2.318,1.431a2.116,2.116,0,0,1-2.317-1.826,1.842,1.842,0,0,1,1.295-1.64"/><path class="cls-66" d="M391.347,136.3c0,.672,1.029,1.239,2.377,1.239,1.313,0,2.378-.708,2.378-1.581,0-.622-.542-1.161-1.329-1.419l-2.654.4Z"/><path class="cls-56" d="M410.125,121.007s-4.473-.21-2.628-.772,9.593-1.195,14.281-.633a22.3,22.3,0,0,1,7.982,2.968.317.317,0,0,1-.218.585c-8.989-1.4-21.411-.99-21.209.944,0,0,12.351,1.826,11.587,2.388s-13.219.984-13.219.984"/><path class="cls-2" d="M415.285,128.736h4.945"/><path class="cls-2" d="M428.4,87.987s10.634-6.932,18.278-7.963A60.263,60.263,0,0,1,469.42,81.9c10.32,3.372,19.112,11.241,19.112,11.241a23.112,23.112,0,0,0,0-9.18,29.013,29.013,0,0,0-4.014-10.867l-9.365,7.552s.309-3.374-3.705-9.276a27.839,27.839,0,0,0-8.921-8.329,26.746,26.746,0,0,1-1.325,6.025,19.233,19.233,0,0,1-3.846,6.635,24.508,24.508,0,0,0-6.809-8.5c-6.494-4.951-11.976-4.621-11.976-4.621a21.745,21.745,0,0,1,1.1,7.208c-.123,5.9-.788,6.955-.788,6.955a30.209,30.209,0,0,0-9.5-3.3c-7.948-1.168-12.121.875-12.121.875C424.1,78.26,426.969,83.008,428.4,87.987Z"/><path class="cls-67" d="M490.821,324.949c-.878,5.524-3.43,8.469-6.208,7.884s-4.507-3.843-4.386-7.811"/><path class="cls-67" d="M480.209,325.347c-.044,3.2-2.937,6.027-5.645,5.581-3.161-.522-4.883-5.321-4.681-8.786"/><path class="cls-68" d="M516.6,309.052c.034,6.06-2,10.51-6.109,10.12-4.091-.388-7.54-4.479-7.474-7.621"/><path class="cls-28" d="M492.3,170.93c1.31,6.042.238,9.943-3.519,10.416-3.74.47-7.946-2.6-8.306-6.027"/><path class="cls-28" d="M481.516,164.327c1.034,4.768.188,7.847-2.777,8.22s-6.271-2.052-6.555-4.756"/><path class="cls-28" d="M525.05,220.581c1.253,5.912.165,9.729-3.555,10.191-3.7.46-7.841-2.544-8.173-5.9"/><path class="cls-28" d="M505.81,185.781c.241,3.78-1.519,5.56-4.2,5.8-3.571.326-7.628-2.864-9.064-7.133"/><path class="cls-28" d="M492.053,165.4c.2,3.043-1.2,4.476-3.35,4.673-2.862.262-6.12-2.307-7.279-5.743"/><path class="cls-28" d="M503.309,172c.194,3.035-1.214,4.463-3.357,4.66-2.858.261-6.506-2.3-7.656-5.726"/><path class="cls-28" d="M488.972,232c.038,6.039-2.569,9.636-6.065,9.3-3.481-.332-6.095-4.831-5.9-8.744"/><path class="cls-28" d="M498.635,243.663c1.041,5.9-.94,10.107-4.438,10.38-3.482.271-6.8-3.681-7.256-7.542"/><path class="cls-28" d="M510.422,240.557c1.026,5.91-1.045,10.384-4.546,10.657-3.485.272-6.8-3.686-7.241-7.551"/><path class="cls-28" d="M521.388,236.894c1.558,5.787.042,9.92-3.289,10.512s-6.876-3.045-7.677-6.849"/><path class="cls-28" d="M531.964,230.973c2.74,5.314,2.014,9.706-1.27,11.04-3.267,1.328-7.619-1.425-9.191-4.968"/><path class="cls-28" d="M450.282,232.749c-.006,3.666-3.171,6.939-6.178,6.47a3.973,3.973,0,0,1-1.5-.573"/><path class="cls-28" d="M502.121,229.22c.034,6.046-1.926,10.5-5.891,10.169-3.947-.332-7.287-4.36-7.233-7.494"/><path class="cls-28" d="M530.108,246.146c1.088,5.282-.561,8.924-3.673,9.29-3.1.365-6.164-3.082-6.672-6.545"/><path class="cls-28" d="M523.441,211.22c.828,3.977.143,7.192-2.489,7.535a5.5,5.5,0,0,1-5.711-3.911"/><path class="cls-28" d="M513.2,232.543c-.459,2.938-2.214,4.008-4.459,3.748-2.992-.348-6.036-4.288-6.622-7.071"/><path class="cls-28" d="M478.257,266.63c-1,6.137-3.8,9.4-6.8,8.753s-4.865-4.262-4.709-8.672"/><path class="cls-28" d="M490.165,265.62c-.044,5.95-2.683,9.459-6.151,9.083s-5.99-4.841-5.74-8.694"/><path class="cls-28" d="M506.591,292.573c-.044,5.95-2.682,9.459-6.151,9.084s-5.99-4.842-5.74-8.694"/><path class="cls-28" d="M518.479,290.573c.821,5.9-1.281,9.737-4.769,9.85s-6.632-3.956-6.944-7.8"/><path class="cls-28" d="M521.75,276.041c1.34,5.2.03,8.874-2.844,9.357s-5.928-2.821-6.616-6.236"/><path class="cls-28" d="M535.718,271.213c1.284,4.709-.046,8.091-2.9,8.6a4.959,4.959,0,0,1-4.073-1.419"/><path class="cls-28" d="M466.5,269.244c-.045,2.416-2.189,4.547-4.184,4.21-2.329-.393-3.586-4.014-3.427-6.632"/><path class="cls-28" d="M503.265,263.055c-.048,5.957-2.056,10.321-5.99,9.939-3.917-.381-7.179-4.393-7.083-7.481"/><path class="cls-28" d="M484.745,279.66c-1.081,6.1-4.084,9.347-7.315,8.7s-5.222-4.237-5.051-8.622"/><path class="cls-28" d="M498.029,280.74c-.053,5.91-2.889,9.395-6.614,9.022a5.812,5.812,0,0,1-3.346-1.591"/><path class="cls-28" d="M465.739,286.251c-3.682-.575-5.668-5.875-5.417-9.709"/><path class="cls-28" d="M472.358,280.089a6.507,6.507,0,0,1-1.807,4.246"/><path class="cls-28" d="M511.742,276.83c.587,5.882-1.093,10.42-5.341,10.5-4.228.082-8.145-3.494-8.373-6.55"/><path class="cls-28" d="M528.863,258.058c-.082,5.97-2.117,10.343-6.053,9.96-3.918-.381-7.162-4.4-7.048-7.5"/><path class="cls-28" d="M540.8,255.6c-.022,4.89-1.831,8.456-5.407,8.105-3.56-.349-6.538-3.676-6.46-6.21"/><path class="cls-28" d="M514.225,266.478c-.5,2.888-2.253,3.919-4.478,3.632-2.968-.382-5.939-4.305-6.482-7.055"/><path class="cls-56" d="M436.533,328.816c-3.247,5.513-8.782,8.339-12.363,6.312-2.109-1.193-3.069-3.8-2.841-6.872"/><path class="cls-56" d="M429.621,315.493c2.237-1.143,4.516-1.342,6.307-.329,2.312,1.308,3.244,4.319,2.741,7.772"/><path class="cls-56" d="M447.673,312.413c4.257,4.6,4,13.949-1.03,22.482a28.765,28.765,0,0,1-8.65,9.375"/><path class="cls-60" d="M368.7,245.586c-.886-5.109-1.844-9.214-.906-12.839a7.288,7.288,0,0,1,6.342,1.241C371.231,237.625,370.045,241.805,368.7,245.586Z"/><path class="cls-69" d="M358.727,238.359a45.564,45.564,0,0,1,1.589-15.766,5.907,5.907,0,0,1,6.319,2.681C363.008,229.832,361.324,233.146,358.727,238.359Z"/><path class="cls-2" d="M354.417,225.041c1.161-5.315,2.12-9.107,5.868-14.308,2.916.286,4.607,2.77,4.028,4.467C363.092,216.859,356.462,222.987,354.417,225.041Z"/><polygon class="cls-70" points="441.876 81.567 443.474 80.961 473.245 88.465 470.258 108.181 456.494 90.358 441.876 81.567"/><path class="cls-38" d="M444.33,395.037s-1.357-2.621.02-8.293c1.03-4.244,5.759-8,5.759-8a21.611,21.611,0,0,0,7.889.614c5.218-.735,8.734-6.386-.877-7.814-11.818-1.756-21.342.625-26.669,4.255-4.954,3.375-6.03,4.622-11.79,5.235a23.47,23.47,0,0,1-10.722-1.563l-6.822-2.364,6.925,17.389,14.636,8.855Z"/><path class="cls-38" d="M429.265,399.587s-21.6-7.063-22.854-21.625c-1.109-12.9,15.042-24.016,15.042-24.016l-13.513-8.634-28.5,7.622-17.167,10.938-8.177,14.875L358.8,394.5l27.676-2.083,19.206,10.036Z"/><path class="cls-38" d="M460.384,390.272c.6.115,10.679-2.337,15.812-10.929s2.219-13.26,2.219-13.26l43.247,17.7L515.1,390.9l-38.815,6.014-17.53-1.876Z"/><path class="cls-2" d="M358.832,398.231s-6.28-4.92-6.261-16.923c.008-5.12,1.373-28.153,33.055-37,26.8-7.478,41.82,1.574,47.079,6.3s3.186,10.35,0,11.61c-3.438,1.359-7.208,1.8-12.02-4.132-3.521-4.338-3.784-9.1-12.521-8.068-13.511,1.6-16.778,15.152-16.778,15.152s-12.625-3.2-23.039,3.345c-18.781,11.807-6.06,28.466-6.06,28.466"/><path class="cls-56" d="M391.386,365.172a41.963,41.963,0,0,0-.129,15.515c2.512,14.618,15.9,18.715,15.9,18.715"/><path class="cls-56" d="M408.164,350.02s-10.8,10.149-8.7,25.187c2.833,20.354,15.773,24.195,15.773,24.195"/><path class="cls-56" d="M381.445,389.292a33.343,33.343,0,0,1-3.321-10.19c-1.326-9.449.924-14.375.924-14.375"/><path class="cls-56" d="M367.424,369.119s-2.439,3.848-.716,14.122a40.867,40.867,0,0,0,3.6,10.6"/><path class="cls-56" d="M425.5,379.177s11.715-2.148,16.723-1.78a34.76,34.76,0,0,1,7.888,1.35"/><path class="cls-56" d="M418.662,394.461a29.664,29.664,0,0,1,6.536-15.118"/><path class="cls-56" d="M423.392,397.105s-.237-3.609,1.952-10.2a27.024,27.024,0,0,1,4.7-8.472"/><path class="cls-56" d="M434.2,377.862s-2.647,3.175-4.159,10.667a33.324,33.324,0,0,0-.559,10.525"/><path class="cls-56" d="M438.976,377.416s-2.386,2.711-3.8,10.207a56.443,56.443,0,0,0-.969,11.221"/><path class="cls-56" d="M444.339,377.6a20.178,20.178,0,0,0-4.689,9.6c-.815,4.435.693,9.708.693,9.708"/><path class="cls-56" d="M418.662,381.037a26.354,26.354,0,0,0-2.484,3.97c-2.022,4.072-2.124,6.078-2.124,6.078"/><path class="cls-27" d="M579.706,406l3-11.535s-12.389.907-23.157-4.985S529.5,353.367,529.5,353.367s-24.166,35.936-45.952,38.145-41.069-6.628-41.069-6.628-13.523,16.448-33.807,14.686-24.791-21.8-24.791-21.8-28.346,10.665-36.61,14.1-17.238,2.467-20.036-1.232c-2.984-3.943-5.355-13.626-5.355-13.626L305,394.458s-9.885,6.7-16.975,6.975-28.27-4.711-28.27-4.711-2.751,3.622-9.464,4.711-21.242.27-21.242.27l-1.895,13.621,55.436,14.363,101.846,12.479,142.748,4.9,71.336,3.233Z"/><path class="cls-2" d="M295.34,426.074a46.406,46.406,0,0,0,27.686-12.468s.876,7.978,7.638,12.151,10.517,3.928,10.517,3.928"/><path class="cls-2" d="M345.939,430.544c.5-.123,5.76,0,5.76,0"/><path class="cls-2" d="M356.081,430.544s10.393-.982,14.274-4.542,6.511-10.678,6.511-10.678a161.162,161.162,0,0,0,22.913,11.66c12.9,5.278,23.415-5.338,23.415-5.338s4.531,3.928,18.68,5.029a61.789,61.789,0,0,0,18.131-1.041"/><path class="cls-2" d="M466.141,425.389H471.4"/><line class="cls-2" x1="618.542" y1="429.854" x2="609.151" y2="429.854"/><path class="cls-56" d="M490.207,370.957s-1.155,4.217-6.791,10.541c-6.955,7.805-14.306,10.025-14.306,10.025"/><path class="cls-56" d="M498.826,374.436a24.961,24.961,0,0,1-5.712,8.712c-9.557,9.306-14.7,8.712-14.7,8.712"/><path class="cls-56" d="M579.706,406l3-11.535s-12.389.907-23.157-4.985S529.5,353.367,529.5,353.367s-24.166,35.936-45.952,38.145-41.069-6.628-41.069-6.628-13.523,16.448-33.807,14.686-24.791-21.8-24.791-21.8-25.367,10.692-36.61,14.1c-8.576,2.6-14.792,2.945-18.8,0s-6.592-14.858-6.592-14.858L305,394.458s-9.885,6.7-16.975,6.975-28.27-4.711-28.27-4.711-2.751,3.622-9.464,4.711-21.242.27-21.242.27"/><path class="cls-2" d="M363.909,225.428c.666-4.95,2.567-9.146,5.786-13.848,2.892.428,5.269,3.3,6.1,5.717C372.794,217.762,366.036,222.844,363.909,225.428Z"/><path class="cls-56" d="M407.9,105.4a13.134,13.134,0,0,1,3.633,5.119,14.482,14.482,0,0,1,.454,2.447"/><path class="cls-71" d="M680.281,457.785c-.6.114-11.623-4.9-16.756-13.491s-2.219-13.259-2.219-13.259l-50.783,20.782"/><path class="cls-56" d="M649.514,435.908s1.29,4.1,6.791,10.541,13.966,10.426,13.966,10.426"/><path class="cls-56" d="M640.9,439.387a35.288,35.288,0,0,0,5.712,8.712c5.813,6.466,10.853,7.656,10.853,7.656"/><path class="cls-56" d="M633.614,442.367s.419,2.035,3.222,5.2c5.52,6.23,10.323,7.211,10.323,7.211"/><path class="cls-64" d="M723.162,457.662c-5.875,2.46-11.63,2.868-14.461,1.46a41.632,41.632,0,0,1,6.661-12.931C716.523,451.559,720.522,455.46,723.162,457.662Z"/><path class="cls-64" d="M712.607,469.906c-5.236.9-9.979.157-12-1.511a35.04,35.04,0,0,1,7.9-9.236C708.411,463.724,710.9,467.63,712.607,469.906Z"/><path class="cls-64" d="M703.7,476.92c-4.1.7-7.821.123-9.405-1.184a27.474,27.474,0,0,1,6.194-7.24C700.411,472.075,702.358,475.136,703.7,476.92Z"/><path class="cls-64" d="M734.466,442.063c-7.382,4.2-14.945,5.656-18.932,4.241a55.271,55.271,0,0,1,6.687-18.207C724.651,435.029,730.6,439.564,734.466,442.063Z"/><path class="cls-64" d="M739.628,420.17c-6.312,5.629-13.392,8.616-17.594,8.057a54.967,54.967,0,0,1,2.622-19.18C728.522,415.322,735.312,418.525,739.628,420.17Z"/><path class="cls-72" d="M477.545,238.284h0a15.048,15.048,0,0,1-4.573.276c-5.2-.515-5.637-3.018-5.41-6.825h0l37.838-11.72-6.741,6.807A41.833,41.833,0,0,1,477.545,238.284Z"/><polygon class="cls-73" points="584.632 330.54 495.26 330.54 488.517 326.249 497.435 321.824 484.819 318.679 484.819 314.971 495.26 309.038 584.632 309.038 584.632 330.54"/><polygon class="cls-74" points="584.632 326.382 495.26 326.382 488.517 326.249 497.435 317.666 484.819 316.795 484.819 312.246 495.26 307.697 594.988 306.446 584.632 326.382"/><path class="cls-75" d="M665.41,42.182s4.861,96.069,68.483,171.863a215.3,215.3,0,0,0,83.989,61.224"/><path class="cls-76" d="M650.276,99.75c-3.192.712-4.787,1.069-7.977,1.782-.353-.761-.53-1.141-.881-1.9,3-14.145,6.449-28.214,10.544-42.094.782-.928,1.174-1.391,1.959-2.318,3.142-.679,4.714-1.017,7.858-1.7.3.69.455,1.036.761,1.727-4.157,13.867-7.67,27.924-10.727,42.06C651.2,98.287,650.889,98.774,650.276,99.75Z"/><path class="cls-76" d="M641.807,152.95l-7.8,1.8-1.936-.984c1.987-16.773,4.551-33.352,7.722-49.947,1.021-1.013,1.533-1.52,2.559-2.533l7.709-1.722,1.714,1.575c-3.254,16.581-5.9,33.152-7.969,49.918C643,151.816,642.6,152.194,641.807,152.95Z"/><path class="cls-76" d="M638.485,215.176c-3.039,1.231-4.557,1.847-7.59,3.077l-3.326-1.191c.075-19.9,1.011-39.616,2.82-59.439,1.443-1.145,2.166-1.718,3.615-2.863,3.015-.7,4.523-1.045,7.54-1.742l3.178,1.29c-1.892,19.388-2.946,38.686-3.176,58.159C640.319,213.551,639.707,214.093,638.485,215.176Z"/><path class="cls-77" d="M666.135,410.6l-7.033,1.987c-1.891-.887-2.836-1.331-4.724-2.219A761.442,761.442,0,0,1,626.824,220.14c4.556-1.958,6.837-2.937,11.406-4.895l4.085.69a761.927,761.927,0,0,0,26.43,190.379C667.7,408.03,667.173,408.888,666.135,410.6Z"/><path class="cls-78" d="M671.754,411.5h-7.606c-2.013-1.314-3.018-1.971-5.025-3.287a761.711,761.711,0,0,1-26.957-190.309l4.075-1.8h7.351l4.092,1.8a761.671,761.671,0,0,0,26.957,190.309C673.483,409.532,672.906,410.189,671.754,411.5Z"/><path class="cls-75" d="M587.641,219.614C609.9,159.139,633.761,99.669,664.094,42.6"/><path class="cls-79" d="M639.241,120.815q-25.518,0-51.035,0c1.149-6.781,1.776-10.165,3.135-16.918h51.035C641.016,110.649,640.389,114.034,639.241,120.815Z"/><path class="cls-80" d="M637.634,130.855c-2.021-3.015-3.022-4.521-5-7.531H596.647c-4.039,3.01-6.049,4.517-10.047,7.532,1.226-8.275,2.664-16.551,4.3-24.757h51.035C640.3,114.305,638.861,122.581,637.634,130.855Z"/><path class="cls-81" d="M600.4,110.289c-.634,3.352-.939,5.03-1.521,8.39"/><path class="cls-81" d="M607.246,110.289c-.634,3.352-.938,5.03-1.521,8.39"/><path class="cls-81" d="M614.1,110.289c-.635,3.352-.939,5.03-1.521,8.39"/><path class="cls-81" d="M620.949,110.288c-.634,3.353-.938,5.031-1.521,8.391"/><path class="cls-81" d="M627.8,110.288c-.634,3.353-.938,5.031-1.52,8.391"/><path class="cls-81" d="M634.652,110.288c-.634,3.353-.939,5.031-1.521,8.391"/><path class="cls-82" d="M631.748,174.731H581.763c.48-6.839.773-10.257,1.464-17.083q24.993,0,49.985,0C632.521,164.474,632.228,167.892,631.748,174.731Z"/><path class="cls-83" d="M631.17,184.09c-2.279-2.733-3.41-4.1-5.656-6.831H590.269c-3.67,3.035-5.5,4.553-9.123,7.59.412-8.328,1.034-16.677,1.86-24.975h49.985C632.051,169.548,631.687,174.394,631.17,184.09Z"/><path class="cls-84" d="M593.641,163.855c-.3,3.386-.444,5.08-.7,8.469"/><path class="cls-84" d="M600.351,163.855c-.3,3.386-.444,5.08-.7,8.469"/><path class="cls-84" d="M607.062,163.855c-.305,3.386-.444,5.08-.7,8.469"/><path class="cls-84" d="M613.772,163.855c-.3,3.386-.444,5.08-.7,8.469"/><path class="cls-84" d="M620.482,163.854c-.3,3.386-.443,5.081-.7,8.47"/><path class="cls-84" d="M627.193,163.854c-.3,3.386-.444,5.08-.7,8.469"/><path class="cls-85" d="M630.2,237.016H580.891c-.288-6.847-.38-10.272-.457-17.122h49.309C629.821,226.744,629.912,230.169,630.2,237.016Z"/><path class="cls-86" d="M630.8,248.4c-2.551-2.529-3.819-3.795-6.341-6.325H589.688c-3.269,3.036-4.893,4.555-8.12,7.589-.619-9.154-.988-18.366-1.1-27.54h49.309C629.885,230.88,630.227,239.667,630.8,248.4Z"/><path class="cls-84" d="M591.6,228.145c.089,3.394.146,5.092.287,8.485"/><path class="cls-84" d="M598.306,228.145c.088,3.394.145,5.092.286,8.485"/><path class="cls-84" d="M605.016,228.145c.089,3.394.146,5.092.287,8.485"/><path class="cls-84" d="M611.727,228.145c.088,3.394.145,5.092.286,8.485"/><path class="cls-84" d="M618.437,228.145c.089,3.394.146,5.092.286,8.485"/><path class="cls-84" d="M625.147,228.145c.089,3.394.146,5.092.287,8.485"/><path class="cls-87" d="M650.24,73.971H598.229c1.736-6.691,2.657-10.027,4.6-16.676h52.011C652.9,63.944,651.975,67.28,650.24,73.971Z"/><path class="cls-88" d="M648.366,81.4c-2.835-2.976-4.241-4.462-7.035-7.431H607.259c-4.382,2.969-6.563,4.455-10.9,7.431,2.157-8.809,3.326-13.2,5.846-21.938h52.01C651.692,68.2,650.523,72.593,648.366,81.4Z"/><path class="cls-89" d="M590.035,104.962l-7.958,1.935c-.362-.826-.542-1.239-.9-2.064,2.856-15.353,6.169-30.623,10.127-45.688.772-1.007,1.16-1.51,1.936-2.516l7.841-1.841c.31.749.465,1.124.777,1.874-4.018,15.051-7.392,30.31-10.309,45.653C590.941,103.374,590.638,103.9,590.035,104.962Z"/><path class="cls-89" d="M582.094,162.707l-7.784,1.955c-.779-.427-1.168-.64-1.946-1.068,1.821-18.2,4.22-36.2,7.227-54.211,1.011-1.1,1.518-1.65,2.533-2.749,3.076-.749,4.615-1.122,7.693-1.87l1.729,1.709c-3.089,18-5.57,35.984-7.474,54.181C583.28,161.475,582.884,161.886,582.094,162.707Z"/><path class="cls-89" d="M579.389,230.248c-3.027,1.335-4.539,2-7.559,3.338l-3.338-1.293c-.123-21.6.617-43,2.23-64.515,1.432-1.243,2.149-1.865,3.587-3.108l7.523-1.89,3.19,1.4c-1.7,21.045-2.561,41.991-2.6,63.127C581.208,228.483,580.6,229.071,579.389,230.248Z"/><path class="cls-89" d="M603.261,397.942l-7.073,1.907c-1.874-.852-2.809-1.278-4.68-2.131a703.633,703.633,0,0,1-23.736-162.731c4.538-1.866,6.811-2.8,11.363-4.666l4.092.659a703.773,703.773,0,0,0,22.73,162.845C604.873,395.473,604.334,396.3,603.261,397.942Z"/><path class="cls-90" d="M602.452,54.429l-10.542,2.4c4.437-5.949,6.692-8.916,11.273-14.83C602.84,46.958,602.694,49.445,602.452,54.429Z"/><path class="cls-53" d="M595.234,105.84h-7.606c-.337-.955-.5-1.432-.837-2.387,2.889-15.348,6.236-30.612,10.227-45.67.741-.878,1.112-1.317,1.856-2.2h7.352c.276.878.416,1.317.7,2.2-3.992,15.058-7.338,30.321-10.227,45.67C596.109,104.407,595.817,104.885,595.234,105.84Z"/><path class="cls-54" d="M595.362,106.141l-7.8.057a.267.267,0,0,1-.261-.181c-.337-.955-.5-1.433-.837-2.388a.336.336,0,0,1-.013-.164l0-.012c.616-3.832,1.31-7.658,2.054-11.477.775-3.82,1.549-7.633,2.425-11.44,1.046-4.568,1.589-6.848,2.718-11.4.947-3.792,1.969-7.577,3.029-11.354l0-.007a.481.481,0,0,1,.1-.176c.741-.878,1.112-1.317,1.856-2.194a.457.457,0,0,1,.334-.17h7.351a.244.244,0,0,1,.244.169c.276.877.415,1.317.7,2.2a.334.334,0,0,1,0,.183c-3.991,15.058-7.337,30.321-10.226,45.67a.462.462,0,0,1-.058.148C596.451,104.456,595.905,105.311,595.362,106.141Zm-.256-.6c.428-.762.855-1.5,1.309-2.234l-.058.148c2.889-15.349,6.235-30.612,10.227-45.67v.183c-.28-.878-.419-1.317-.7-2.2l.243.17h-7.351l.333-.169c-.744.877-1.115,1.316-1.855,2.194l.1-.183c-.922,3.777-1.815,7.562-2.711,11.354-1.083,4.551-1.6,6.831-2.6,11.4-.828,3.807-1.689,7.62-2.479,11.44-.822,3.819-1.624,7.645-2.433,11.477l-.011-.176c.332.954.5,1.431.835,2.386l-.26-.181C590.168,105.481,592.628,105.5,595.106,105.539Z"/><path class="cls-53" d="M587.372,163.6h-7.607L577.87,162c1.866-18.2,4.309-36.192,7.361-54.2.976-.892,1.465-1.337,2.444-2.229h7.352c.654.892.981,1.337,1.639,2.229-3.052,18-5.5,35.995-7.361,54.2Z"/><path class="cls-54" d="M587.456,163.936l-7.723.021a.3.3,0,0,1-.193-.07l-1.9-1.592a.339.339,0,0,1-.113-.274V162c.222-4.537.617-9.07,1.05-13.6.472-4.529,1-9.052,1.648-13.569s1.291-9.029,2.092-13.534c.768-4.5,1.613-9,2.571-13.494l0-.013a.455.455,0,0,1,.137-.236c.977-.892,1.466-1.338,2.446-2.229a.393.393,0,0,1,.262-.109h7.351a.272.272,0,0,1,.223.108c.653.892.981,1.338,1.637,2.229a.325.325,0,0,1,.051.25c-3.051,18-5.5,35.995-7.36,54.2a.421.421,0,0,1-.148.279C588.678,162.942,588.271,163.273,587.456,163.936Zm-.168-.682,1.827-1.53-.148.277c1.866-18.2,4.31-36.191,7.361-54.2.02.1.03.15.051.25-.658-.892-.986-1.338-1.64-2.23l.223.109H587.61l.262-.109c-.979.892-1.468,1.338-2.444,2.23l.14-.25c-.65,4.491-1.317,8.989-1.966,13.494-.616,4.505-1.3,9.016-1.875,13.534s-1.182,9.04-1.746,13.569c-.6,4.528-1.149,9.061-1.773,13.6l-.112-.292,1.894,1.593-.192-.069Z"/><path class="cls-53" d="M584.76,231.14h-7.607l-3.342-2.151c-.018-21.135.791-42.084,2.435-63.133,1.406-.9,2.11-1.352,3.518-2.254h7.352l3.117,2.255c-1.644,21.049-2.452,42-2.435,63.133C586.581,229.85,585.974,230.28,584.76,231.14Z"/><path class="cls-54" d="M584.861,231.488l-7.7.015a.332.332,0,0,1-.175-.052l-3.343-2.15a.374.374,0,0,1-.167-.3v-.012c-.1-3.161-.145-4.741-.21-7.9-.034-3.161-.041-4.741-.037-7.9.066-6.32.137-9.479.356-15.794.234-5.264.484-10.524.885-15.78.374-5.257.865-10.509,1.442-15.757v-.009a.409.409,0,0,1,.183-.3c1.406-.9,2.109-1.353,3.519-2.254a.344.344,0,0,1,.186-.056h7.351a.3.3,0,0,1,.175.057l3.117,2.254a.337.337,0,0,1,.13.306c-1.644,21.049-2.453,42-2.436,63.133a.372.372,0,0,1-.15.3C586.734,230.172,586.109,230.611,584.861,231.488Zm-.2-.7,2.951-2.106-.15.305c-.017-21.136.791-42.084,2.436-63.133l.13.306c-1.249-.9-1.872-1.353-3.118-2.255l.175.057h-7.351l.186-.057c-1.409.9-2.112,1.352-3.517,2.254l.183-.306c-.339,5.248-.635,10.5-.921,15.757-.259,5.256-.542,10.517-.714,15.78-.268,6.315-.364,9.474-.48,15.794-.087,3.16-.121,4.74-.169,7.9-.08,3.16-.11,4.741-.151,7.9l-.167-.311c1.335.859,2,1.29,3.341,2.15l-.174-.052Z"/><path class="cls-53" d="M608.861,398.808h-7.606c-1.986-1.261-2.978-1.893-4.958-3.155a703.73,703.73,0,0,1-23.2-162.793l4.059-1.713h7.352l4.108,1.714a703.63,703.63,0,0,0,23.2,162.793C610.631,396.916,610.04,397.547,608.861,398.808Z"/><path class="cls-54" d="M609.066,399.142l-7.712.019a.419.419,0,0,1-.22-.069c-1.987-1.261-2.979-1.892-4.959-3.155a.5.5,0,0,1-.211-.272l0-.013q-3.009-9.981-5.544-20.032c-1.018-4.019-1.51-6.032-2.464-10.064-.919-4.032-1.363-6.05-2.218-10.093-2.869-13.438-5.177-27-7.088-40.621-1.142-8.159-1.648-12.245-2.532-20.429-.853-8.184-1.214-12.283-1.809-20.486-1.012-13.667-1.48-27.369-1.548-41.067a.363.363,0,0,1,.21-.339l4.059-1.713a.334.334,0,0,1,.123-.025H584.5a.318.318,0,0,1,.123.025l4.107,1.713a.371.371,0,0,1,.22.339,703.722,703.722,0,0,0,23.2,162.792.288.288,0,0,1-.053.278C610.883,397.217,610.276,397.858,609.066,399.142Zm-.408-.667c1.146-1.239,1.72-1.859,2.872-3.1l-.052.277a703.722,703.722,0,0,1-23.2-162.792l.22.338-4.108-1.712.123.024h-7.352l.122-.025-4.058,1.713.21-.339c.361,13.707,1.183,27.4,2.319,41.067.7,8.2,1.107,12.3,2.059,20.486.921,8.184,1.445,12.27,2.624,20.429,1.962,13.612,4.385,27.149,7.093,40.621.821,4.043,1.247,6.061,2.132,10.093.851,4.032,1.293,6.045,2.209,10.065q2.31,10.048,4.767,20.031l-.215-.284c1.979,1.263,2.971,1.895,4.956,3.156l-.22-.069Z"/><path class="cls-90" d="M607.527,55.5h-9.9c2.164-5.413,3.276-8.113,5.56-13.5C604.861,47.382,605.73,50.082,607.527,55.5Z"/><path class="cls-90" d="M605.323,40.433a2.433,2.433,0,0,1-2.15,1.714,1.221,1.221,0,0,1-1.152-1.714,2.436,2.436,0,0,1,2.155-1.713A1.218,1.218,0,0,1,605.323,40.433Z"/><path class="cls-33" d="M663.155,53.194c-4.228.883-6.34,1.324-10.564,2.209,4.491-5.481,6.773-8.215,11.409-13.663C663.611,46.31,663.442,48.6,663.155,53.194Z"/><path class="cls-33" d="M655.467,100.558H647.86c-.327-.88-.491-1.319-.815-2.2,3.03-14.14,6.516-28.2,10.645-42.076.749-.809,1.124-1.213,1.876-2.022h7.352c.268.809.4,1.214.675,2.023-4.129,13.873-7.614,27.935-10.644,42.075C656.354,99.239,656.058,99.678,655.467,100.558Z"/><path class="cls-33" d="M647.077,153.768H639.47l-1.881-1.468c2.032-16.769,4.64-33.344,7.856-49.931.985-.822,1.478-1.232,2.466-2.054h7.351c.645.822.969,1.232,1.618,2.054-3.216,16.587-5.825,33.162-7.856,49.931Z"/><path class="cls-33" d="M643.847,216h-7.606l-3.323-1.981c.176-19.473,1.176-38.773,3.013-58.166l3.538-2.077h7.352c1.237.831,1.856,1.246,3.1,2.077-1.837,19.393-2.837,38.693-3.012,58.165Z"/><path class="cls-33" d="M668.219,54.176h-9.9c2.214-4.987,3.35-7.474,5.684-12.435C665.628,46.7,666.472,49.188,668.219,54.176Z"/><path class="cls-33" d="M666.493,40.294a2.431,2.431,0,0,1-2.165,1.579,1.129,1.129,0,0,1-1.136-1.579,2.438,2.438,0,0,1,2.17-1.578A1.126,1.126,0,0,1,666.493,40.294Z"/><path class="cls-91" d="M612.2,62.359c-.933,3.3-1.387,4.956-2.268,8.268"/><path class="cls-91" d="M618.948,62.359c-.933,3.3-1.387,4.956-2.268,8.268"/><path class="cls-91" d="M625.7,62.358c-.933,3.3-1.387,4.957-2.268,8.269"/><path class="cls-91" d="M632.441,62.358c-.933,3.3-1.386,4.957-2.267,8.269"/><path class="cls-91" d="M639.188,62.359c-.933,3.3-1.387,4.956-2.268,8.268"/><path class="cls-91" d="M645.934,62.359c-.933,3.3-1.386,4.956-2.267,8.268"/><path class="cls-56" d="M596.8,317.138q24.99,17.376,50.333,34.241H604.409q17.379-17.3,35.11-34.242"/><path class="cls-56" d="M604.436,351.482q26.088,17.188,52.526,33.841-21.361,0-42.722,0,16.281-17.091,32.918-33.841"/><polygon class="cls-92" points="818.87 339.793 597.975 329.27 595.954 311.695 818.87 312.692 818.87 339.793"/><polygon class="cls-93" points="818.87 330.54 596.927 324.84 594.602 306.281 818.87 307.451 818.87 330.54"/><path class="cls-75" d="M604.249,41.963s5.61,105.163,79.04,188.132C726.834,279.3,781,298.756,818.87,307.451"/><line class="cls-75" x1="786.682" y1="298.216" x2="786.682" y2="329.001"/><line class="cls-75" x1="762.548" y1="288.492" x2="762.548" y2="327.499"/><line class="cls-75" x1="738.414" y1="276.379" x2="738.414" y2="327.962"/><line class="cls-75" x1="714.28" y1="259.731" x2="714.28" y2="327.693"/><line class="cls-75" x1="690.146" y1="238.373" x2="690.146" y2="326.442"/><line class="cls-75" x1="666.012" y1="208.275" x2="666.012" y2="325.442"/><line class="cls-75" x1="641.878" y1="168.71" x2="641.878" y2="325.442"/><line class="cls-75" x1="615.291" y1="102.921" x2="615.291" y2="325.442"/><path class="cls-38" d="M671.764,409.069a180.463,180.463,0,0,0-12.342-15c-8.47-9.093-22.022-19.219-39.688-27.422-8.764-4.069-25.436-9.526-48.159-11.484-22.758-1.961-31.368,6.439-31.368,6.439s22.172-1.049,28.222,19.107c4.538,15.118-1.469,18.888-9.216,23.524l20.93,5.533L591.45,410l22.37-.115"/><path class="cls-94" d="M559.038,366.992s17.37,5.462,22.459,17.984c3.512,8.641,1.948,20.344,1.948,20.344"/><path class="cls-94" d="M551.912,356.275s33.941-1.485,46.727,27.062a38.686,38.686,0,0,1,1.371,27.218"/><path class="cls-94" d="M574.654,355.453s30.725,5.309,42.66,26.587c7.561,13.481,1.371,27.217,1.371,27.217"/><path class="cls-94" d="M624.051,369.278A39.815,39.815,0,0,1,638.368,386.1c6.318,14.107,2.165,24.455,2.165,24.455"/><path class="cls-71" d="M592.769,429.781s-12.521,0-20.284-6.382-5.134-17.21-5.134-17.21L568,402.6l-26.44,9.96-6.758,2.33a134.033,134.033,0,0,1-13.117,3.824c-5.028,1.02-26-1.147-26-1.147s11.41,9.066,34.9,13.3a226.883,226.883,0,0,0,29.891,3.288c11.026.474,21.725-.526,32.1-4.305Z"/><path class="cls-56" d="M554.854,408.317s-1.849,6.268-.691,11.593c2.419,11.125,9.668,14.346,9.668,14.346"/><path class="cls-56" d="M544.977,411.887s-1.206,8.106-.455,11.786,5.788,9.816,5.788,9.816"/><path class="cls-56" d="M536.391,414.857a17.188,17.188,0,0,0,2.86,17.384"/><path class="cls-56" d="M527.18,416.948s-.563,5.5,0,8.441a13.239,13.239,0,0,0,2.317,5.155"/><path class="cls-56" d="M517.842,419.559s-.491,2.52-.616,4.114a14.5,14.5,0,0,0,.616,4.077"/><path class="cls-2" d="M527.18,416.948s5.7-.435,17.8-5.061c3.515-1.344,10.188-4.3,15.572-4.541a53.556,53.556,0,0,1,16.152,2.4c3.631,1.174,9.516-1.664,5.259-7.432s-16.2-3.541-26.169,1.472c-5.182,2.607-29.049,15.588-40.693,16.079a54.81,54.81,0,0,1-20.771-3.21"/><path class="cls-2" d="M580.143,409.766c3.65.252,36.7.608,40.384-.366,31.261-8.271,43.522-22.821,43.522-22.821s-2.42,16.293,13.351,17.826l7.289,9.829"/><path class="cls-2" d="M458.33,231.521a21.918,21.918,0,0,0,8.758,5.872,2.049,2.049,0,0,0,2.648-1.114,9.336,9.336,0,0,0,.6-3.64,1.581,1.581,0,0,0-2.009-1.449A27.091,27.091,0,0,1,458.33,231.521Z"/><path class="cls-72" d="M569.14,195.133a29.986,29.986,0,0,1-6.982,18.021c-3.945,4.781-11.689,8.076-23.652,8.9-7.2.494-25.423-1.887-28.863-2.349a1.455,1.455,0,0,0-1.031.248c-2.293,1.6-12.365,8.562-14.8,9.515-2.75,1.079-12.651,3.775-19.8,3.37s-11.391-3.353-11.391-7.334c0-2.491,4.619-3.281,4.619-3.281s-3.267-.178-4.532-1.746c-1.869-2.315-3.1-2.967-2.184-5.371.817-2.135,4.477-1.6,9.921-.885,4.3.567,4.962-.677,4.962-.677,1.593-1.107.7-2.667-.761-2.886,0,0-6.95-.116-10.4-.466-3.987-.4-5.775-2.561-5.913-5.122s1.788-4.449,4.951-4.583a12.381,12.381,0,0,1,5.221.879,1.375,1.375,0,0,0,.378.1,46.726,46.726,0,0,0,6.5-.038,17.169,17.169,0,0,0,8.38-2.734,1.422,1.422,0,0,0,.356-2.068l-2.04-2.667a1.471,1.471,0,0,0-.992-.567c-.547-.066-1.51-.174-3.091-.321-2.888-.27-4.538-1.888-4.951-3.91a3.561,3.561,0,0,1,3.438-4.448,29.919,29.919,0,0,1,17.6,5.527,65.408,65.408,0,0,1,7.81,6.115,1.465,1.465,0,0,0,1.143.462l2.666-.108a26.388,26.388,0,0,0,17.129-7.22h0a1.421,1.421,0,0,0,.114-.119c3.389-3.923,6.738-12.585,8.715-18.329a17.973,17.973,0,0,1,6.975-9.049h0"/><path class="cls-2" d="M463.526,191.383a24.4,24.4,0,0,1,10.635-5.928c1.607,1.823,1.657,4.964.963,6.982C473,191.136,466.17,190.836,463.526,191.383Z"/><path class="cls-2" d="M449.354,201.907a23.07,23.07,0,0,0,10.383,6.467c1.708-1.933,1.918-5.293,1.324-7.461C458.856,202.281,451.983,202.523,449.354,201.907Z"/><path class="cls-2" d="M452.326,214.006a23.056,23.056,0,0,0,10.383,6.467,8.207,8.207,0,0,0,1.586-5.946,1.171,1.171,0,0,0-1.54-.974A26.6,26.6,0,0,1,452.326,214.006Z"/><path class="cls-2" d="M453.075,223.246a21.932,21.932,0,0,0,8.758,5.872A2.05,2.05,0,0,0,464.482,228a9.336,9.336,0,0,0,.6-3.64,1.58,1.58,0,0,0-2.008-1.449A27.1,27.1,0,0,1,453.075,223.246Z"/><path class="cls-95" d="M489.6,209.359s-.031.583-4.192,1.308c-4.112.716-12.861-.061-12.861-.061"/><path class="cls-72" d="M490.254,221.212s-5.446,1.378-9.159,1.917-13.854-.91-13.854-.91"/><path class="cls-96" d="M237.005,135.1a19.161,19.161,0,0,1,14.568-.741A18.681,18.681,0,0,1,264.024,153.4"/><path class="cls-96" d="M197.123,103.906a19.168,19.168,0,0,1,14.567-.741,18.684,18.684,0,0,1,12.452,19.044"/><path class="cls-96" d="M157.561,114.736a12.941,12.941,0,0,1,25.379-3.049"/><path class="cls-96" d="M132.586,117.807a18.624,18.624,0,0,1,36.524-4.39"/><path class="cls-96" d="M236.734,107.537c-2.577-8.44-.591-17.524,5.971-23.375,9.457-8.433,24.837-6.957,34.352,3.3a26.359,26.359,0,0,1,7.091,15.765"/><path class="cls-96" d="M228.342,115.634a14.532,14.532,0,0,1,3.907-15.3c6.188-5.518,16.251-4.552,22.477,2.157a17.251,17.251,0,0,1,4.64,10.316"/><path class="cls-96" d="M200.438,162.732c-9.8-4.608-16.478-13.745-16.478-24.264,0-15.161,13.867-27.451,30.973-27.451a33.267,33.267,0,0,1,20.164,6.614"/><path class="cls-96" d="M253.873,153.832a12.94,12.94,0,0,1,25.378-3.05"/><ellipse class="cls-27" cx="279.211" cy="108.834" rx="15.698" ry="8.006"/><ellipse class="cls-27" cx="266.907" cy="159.783" rx="15.698" ry="8.006"/><ellipse class="cls-27" cx="157.018" cy="121.103" rx="15.698" ry="8.006"/><path class="cls-96" d="M754.859,108.759a19.163,19.163,0,0,1,14.567-.742,18.684,18.684,0,0,1,12.452,19.044"/><path class="cls-96" d="M745.121,108.838a12.941,12.941,0,0,1,25.379-3.049"/><path class="cls-96" d="M720.146,111.909a18.624,18.624,0,0,1,36.524-4.39"/><ellipse class="cls-27" cx="744.578" cy="115.205" rx="15.698" ry="8.006"/><path class="cls-2" d="M477.159,423.67s6.636-1.718,9.14-5.155a10.815,10.815,0,0,0,2.254-6.628s11.144,12.152,37.563,18.043"/><path class="cls-2" d="M379.531,450.62c.727-.143,1.658.614,8.147-1.569,6.608-2.223,9.6-8.271,10.038-8.271s6.11,5.7,7.855,5.989"/><path class="cls-38" d="M351.622,444.9s-7.733-.131-10.351-1.842-11.493-6.7-11.493-6.7c-1.729,4.153-8.872,6.711-12.365,7.558a29.7,29.7,0,0,1-8,.343"/><line class="cls-2" x1="592.769" y1="429.781" x2="602.159" y2="427.124"/><path class="cls-56" d="M-.346,359.315c11.4-.579,64.385-3.121,87.684-1.6,26.186,1.711,39.278,2.567,55.863,2.567s70.119,2.852,80.594,2.852S253.278,362,261.036,362c4.122,0,35.8.84,53.062.84l8.594,3.113"/></g></svg>